<svg width="1920" height="80" viewBox="0 0 1920 80" fill="none" xmlns="http://www.w3.org/2000/svg">
<g opacity="0.7">
<mask id="path-1-inside-1_309_4264" fill="white">
<path d="M0 0H6V60H0V0Z"/>
</mask>
<path d="M6 60V61H7V60H6ZM0 60H-1V61H0V60ZM5 0V60H7V0H5ZM6 59H0V61H6V59ZM1 60V0H-1V60H1Z" fill="#EE0000" mask="url(#path-1-inside-1_309_4264)"/>
<mask id="path-3-inside-2_309_4264" fill="white">
<path d="M9 0H15V71H9V0Z"/>
</mask>
<path d="M15 71V72H16V71H15ZM9 71H8V72H9V71ZM14 0V71H16V0H14ZM15 70H9V72H15V70ZM10 71V0H8V71H10Z" fill="#EE0000" mask="url(#path-3-inside-2_309_4264)"/>
<mask id="path-5-inside-3_309_4264" fill="white">
<path d="M18 0H24V43H18V0Z"/>
</mask>
<path d="M24 43V44H25V43H24ZM18 43H17V44H18V43ZM23 0V43H25V0H23ZM24 42H18V44H24V42ZM19 43V0H17V43H19Z" fill="#EE0000" mask="url(#path-5-inside-3_309_4264)"/>
<mask id="path-7-inside-4_309_4264" fill="white">
<path d="M27 0H33V60H27V0Z"/>
</mask>
<path d="M33 60V61H34V60H33ZM27 60H26V61H27V60ZM32 0V60H34V0H32ZM33 59H27V61H33V59ZM28 60V0H26V60H28Z" fill="#EE0000" mask="url(#path-7-inside-4_309_4264)"/>
<mask id="path-9-inside-5_309_4264" fill="white">
<path d="M36 0H42V35H36V0Z"/>
</mask>
<path d="M42 35V36H43V35H42ZM36 35H35V36H36V35ZM41 0V35H43V0H41ZM42 34H36V36H42V34ZM37 35V0H35V35H37Z" fill="#EE0000" mask="url(#path-9-inside-5_309_4264)"/>
<mask id="path-11-inside-6_309_4264" fill="white">
<path d="M45 0H51V50H45V0Z"/>
</mask>
<path d="M51 50V51H52V50H51ZM45 50H44V51H45V50ZM50 0V50H52V0H50ZM51 49H45V51H51V49ZM46 50V0H44V50H46Z" fill="#EE0000" mask="url(#path-11-inside-6_309_4264)"/>
<mask id="path-13-inside-7_309_4264" fill="white">
<path d="M54 0H60V53H54V0Z"/>
</mask>
<path d="M60 53V54H61V53H60ZM54 53H53V54H54V53ZM59 0V53H61V0H59ZM60 52H54V54H60V52ZM55 53V0H53V53H55Z" fill="#EE0000" mask="url(#path-13-inside-7_309_4264)"/>
<mask id="path-15-inside-8_309_4264" fill="white">
<path d="M63 0H69V31H63V0Z"/>
</mask>
<path d="M69 31V32H70V31H69ZM63 31H62V32H63V31ZM68 0V31H70V0H68ZM69 30H63V32H69V30ZM64 31V0H62V31H64Z" fill="#EE0000" mask="url(#path-15-inside-8_309_4264)"/>
<mask id="path-17-inside-9_309_4264" fill="white">
<path d="M72 0H78V64H72V0Z"/>
</mask>
<path d="M78 64V65H79V64H78ZM72 64H71V65H72V64ZM77 0V64H79V0H77ZM78 63H72V65H78V63ZM73 64V0H71V64H73Z" fill="#EE0000" mask="url(#path-17-inside-9_309_4264)"/>
<mask id="path-19-inside-10_309_4264" fill="white">
<path d="M81 0H87V29H81V0Z"/>
</mask>
<path d="M87 29V30H88V29H87ZM81 29H80V30H81V29ZM86 0V29H88V0H86ZM87 28H81V30H87V28ZM82 29V0H80V29H82Z" fill="#EE0000" mask="url(#path-19-inside-10_309_4264)"/>
<mask id="path-21-inside-11_309_4264" fill="white">
<path d="M90 0H96V12H90V0Z"/>
</mask>
<path d="M96 12V13H97V12H96ZM90 12H89V13H90V12ZM95 0V12H97V0H95ZM96 11H90V13H96V11ZM91 12V0H89V12H91Z" fill="#EE0000" mask="url(#path-21-inside-11_309_4264)"/>
<mask id="path-23-inside-12_309_4264" fill="white">
<path d="M99 0H105V31H99V0Z"/>
</mask>
<path d="M105 31V32H106V31H105ZM99 31H98V32H99V31ZM104 0V31H106V0H104ZM105 30H99V32H105V30ZM100 31V0H98V31H100Z" fill="#EE0000" mask="url(#path-23-inside-12_309_4264)"/>
<mask id="path-25-inside-13_309_4264" fill="white">
<path d="M108 0H114V47H108V0Z"/>
</mask>
<path d="M114 47V48H115V47H114ZM108 47H107V48H108V47ZM113 0V47H115V0H113ZM114 46H108V48H114V46ZM109 47V0H107V47H109Z" fill="#EE0000" mask="url(#path-25-inside-13_309_4264)"/>
<mask id="path-27-inside-14_309_4264" fill="white">
<path d="M117 0H123V31H117V0Z"/>
</mask>
<path d="M123 31V32H124V31H123ZM117 31H116V32H117V31ZM122 0V31H124V0H122ZM123 30H117V32H123V30ZM118 31V0H116V31H118Z" fill="#EE0000" mask="url(#path-27-inside-14_309_4264)"/>
<mask id="path-29-inside-15_309_4264" fill="white">
<path d="M126 0H132V53H126V0Z"/>
</mask>
<path d="M132 53V54H133V53H132ZM126 53H125V54H126V53ZM131 0V53H133V0H131ZM132 52H126V54H132V52ZM127 53V0H125V53H127Z" fill="#EE0000" mask="url(#path-29-inside-15_309_4264)"/>
<mask id="path-31-inside-16_309_4264" fill="white">
<path d="M135 0H141V22H135V0Z"/>
</mask>
<path d="M141 22V23H142V22H141ZM135 22H134V23H135V22ZM140 0V22H142V0H140ZM141 21H135V23H141V21ZM136 22V0H134V22H136Z" fill="#EE0000" mask="url(#path-31-inside-16_309_4264)"/>
<mask id="path-33-inside-17_309_4264" fill="white">
<path d="M144 0H150V64H144V0Z"/>
</mask>
<path d="M150 64V65H151V64H150ZM144 64H143V65H144V64ZM149 0V64H151V0H149ZM150 63H144V65H150V63ZM145 64V0H143V64H145Z" fill="#EE0000" mask="url(#path-33-inside-17_309_4264)"/>
<mask id="path-35-inside-18_309_4264" fill="white">
<path d="M153 0H159V31H153V0Z"/>
</mask>
<path d="M159 31V32H160V31H159ZM153 31H152V32H153V31ZM158 0V31H160V0H158ZM159 30H153V32H159V30ZM154 31V0H152V31H154Z" fill="#EE0000" mask="url(#path-35-inside-18_309_4264)"/>
<mask id="path-37-inside-19_309_4264" fill="white">
<path d="M162 0H168V47H162V0Z"/>
</mask>
<path d="M168 47V48H169V47H168ZM162 47H161V48H162V47ZM167 0V47H169V0H167ZM168 46H162V48H168V46ZM163 47V0H161V47H163Z" fill="#EE0000" mask="url(#path-37-inside-19_309_4264)"/>
<mask id="path-39-inside-20_309_4264" fill="white">
<path d="M171 0H177V35H171V0Z"/>
</mask>
<path d="M177 35V36H178V35H177ZM171 35H170V36H171V35ZM176 0V35H178V0H176ZM177 34H171V36H177V34ZM172 35V0H170V35H172Z" fill="#EE0000" mask="url(#path-39-inside-20_309_4264)"/>
<mask id="path-41-inside-21_309_4264" fill="white">
<path d="M447 0H441V32H447V0Z"/>
</mask>
<path d="M441 32V33H440V32H441ZM447 32H448V33H447V32ZM442 0V32H440V0H442ZM441 31H447V33H441V31ZM446 32V0H448V32H446Z" fill="#EE0000" mask="url(#path-41-inside-21_309_4264)"/>
<mask id="path-43-inside-22_309_4264" fill="white">
<path d="M438 0H432V45H438V0Z"/>
</mask>
<path d="M432 45V46H431V45H432ZM438 45H439V46H438V45ZM433 0V45H431V0H433ZM432 44H438V46H432V44ZM437 45V0H439V45H437Z" fill="#EE0000" mask="url(#path-43-inside-22_309_4264)"/>
<mask id="path-45-inside-23_309_4264" fill="white">
<path d="M429 0H423V22H429V0Z"/>
</mask>
<path d="M423 22V23H422V22H423ZM429 22H430V23H429V22ZM424 0V22H422V0H424ZM423 21H429V23H423V21ZM428 22V0H430V22H428Z" fill="#EE0000" mask="url(#path-45-inside-23_309_4264)"/>
<mask id="path-47-inside-24_309_4264" fill="white">
<path d="M420 0H414V32H420V0Z"/>
</mask>
<path d="M414 32V33H413V32H414ZM420 32H421V33H420V32ZM415 0V32H413V0H415ZM414 31H420V33H414V31ZM419 32V0H421V32H419Z" fill="#EE0000" mask="url(#path-47-inside-24_309_4264)"/>
<mask id="path-49-inside-25_309_4264" fill="white">
<path d="M411 0H405V24H411V0Z"/>
</mask>
<path d="M405 24V25H404V24H405ZM411 24H412V25H411V24ZM406 0V24H404V0H406ZM405 23H411V25H405V23ZM410 24V0H412V24H410Z" fill="#EE0000" mask="url(#path-49-inside-25_309_4264)"/>
<mask id="path-51-inside-26_309_4264" fill="white">
<path d="M402 0H396V30H402V0Z"/>
</mask>
<path d="M396 30V31H395V30H396ZM402 30H403V31H402V30ZM397 0V30H395V0H397ZM396 29H402V31H396V29ZM401 30V0H403V30H401Z" fill="#EE0000" mask="url(#path-51-inside-26_309_4264)"/>
<mask id="path-53-inside-27_309_4264" fill="white">
<path d="M393 0H387V18H393V0Z"/>
</mask>
<path d="M387 18V19H386V18H387ZM393 18H394V19H393V18ZM388 0V18H386V0H388ZM387 17H393V19H387V17ZM392 18V0H394V18H392Z" fill="#EE0000" mask="url(#path-53-inside-27_309_4264)"/>
<mask id="path-55-inside-28_309_4264" fill="white">
<path d="M384 0H378V16H384V0Z"/>
</mask>
<path d="M378 16V17H377V16H378ZM384 16H385V17H384V16ZM379 0V16H377V0H379ZM378 15H384V17H378V15ZM383 16V0H385V16H383Z" fill="#EE0000" mask="url(#path-55-inside-28_309_4264)"/>
<mask id="path-57-inside-29_309_4264" fill="white">
<path d="M375 0H369V26H375V0Z"/>
</mask>
<path d="M369 26V27H368V26H369ZM375 26H376V27H375V26ZM370 0V26H368V0H370ZM369 25H375V27H369V25ZM374 26V0H376V26H374Z" fill="#EE0000" mask="url(#path-57-inside-29_309_4264)"/>
<mask id="path-59-inside-30_309_4264" fill="white">
<path d="M366 0H360V28H366V0Z"/>
</mask>
<path d="M360 28V29H359V28H360ZM366 28H367V29H366V28ZM361 0V28H359V0H361ZM360 27H366V29H360V27ZM365 28V0H367V28H365Z" fill="#EE0000" mask="url(#path-59-inside-30_309_4264)"/>
<mask id="path-61-inside-31_309_4264" fill="white">
<path d="M357 0H351V34H357V0Z"/>
</mask>
<path d="M351 34V35H350V34H351ZM357 34H358V35H357V34ZM352 0V34H350V0H352ZM351 33H357V35H351V33ZM356 34V0H358V34H356Z" fill="#EE0000" mask="url(#path-61-inside-31_309_4264)"/>
<mask id="path-63-inside-32_309_4264" fill="white">
<path d="M348 0H342V40H348V0Z"/>
</mask>
<path d="M342 40V41H341V40H342ZM348 40H349V41H348V40ZM343 0V40H341V0H343ZM342 39H348V41H342V39ZM347 40V0H349V40H347Z" fill="#EE0000" mask="url(#path-63-inside-32_309_4264)"/>
<mask id="path-65-inside-33_309_4264" fill="white">
<path d="M339 0H333V24H339V0Z"/>
</mask>
<path d="M333 24V25H332V24H333ZM339 24H340V25H339V24ZM334 0V24H332V0H334ZM333 23H339V25H333V23ZM338 24V0H340V24H338Z" fill="#EE0000" mask="url(#path-65-inside-33_309_4264)"/>
<mask id="path-67-inside-34_309_4264" fill="white">
<path d="M330 0H324V34H330V0Z"/>
</mask>
<path d="M324 34V35H323V34H324ZM330 34H331V35H330V34ZM325 0V34H323V0H325ZM324 33H330V35H324V33ZM329 34V0H331V34H329Z" fill="#EE0000" mask="url(#path-67-inside-34_309_4264)"/>
<mask id="path-69-inside-35_309_4264" fill="white">
<path d="M321 0H315V20H321V0Z"/>
</mask>
<path d="M315 20V21H314V20H315ZM321 20H322V21H321V20ZM316 0V20H314V0H316ZM315 19H321V21H315V19ZM320 20V0H322V20H320Z" fill="#EE0000" mask="url(#path-69-inside-35_309_4264)"/>
<mask id="path-71-inside-36_309_4264" fill="white">
<path d="M312 0H306V28H312V0Z"/>
</mask>
<path d="M306 28V29H305V28H306ZM312 28H313V29H312V28ZM307 0V28H305V0H307ZM306 27H312V29H306V27ZM311 28V0H313V28H311Z" fill="#EE0000" mask="url(#path-71-inside-36_309_4264)"/>
<mask id="path-73-inside-37_309_4264" fill="white">
<path d="M303 0H297V30H303V0Z"/>
</mask>
<path d="M297 30V31H296V30H297ZM303 30H304V31H303V30ZM298 0V30H296V0H298ZM297 29H303V31H297V29ZM302 30V0H304V30H302Z" fill="#EE0000" mask="url(#path-73-inside-37_309_4264)"/>
<mask id="path-75-inside-38_309_4264" fill="white">
<path d="M294 0H288V18H294V0Z"/>
</mask>
<path d="M288 18V19H287V18H288ZM294 18H295V19H294V18ZM289 0V18H287V0H289ZM288 17H294V19H288V17ZM293 18V0H295V18H293Z" fill="#EE0000" mask="url(#path-75-inside-38_309_4264)"/>
<mask id="path-77-inside-39_309_4264" fill="white">
<path d="M285 0H279V36H285V0Z"/>
</mask>
<path d="M279 36V37H278V36H279ZM285 36H286V37H285V36ZM280 0V36H278V0H280ZM279 35H285V37H279V35ZM284 36V0H286V36H284Z" fill="#EE0000" mask="url(#path-77-inside-39_309_4264)"/>
<mask id="path-79-inside-40_309_4264" fill="white">
<path d="M276 0H270V16H276V0Z"/>
</mask>
<path d="M270 16V17H269V16H270ZM276 16H277V17H276V16ZM271 0V16H269V0H271ZM270 15H276V17H270V15ZM275 16V0H277V16H275Z" fill="#EE0000" mask="url(#path-79-inside-40_309_4264)"/>
<mask id="path-81-inside-41_309_4264" fill="white">
<path d="M267 0H261V7H267V0Z"/>
</mask>
<path d="M261 7V8H260V7H261ZM267 7H268V8H267V7ZM262 0V7H260V0H262ZM261 6H267V8H261V6ZM266 7V0H268V7H266Z" fill="#EE0000" mask="url(#path-81-inside-41_309_4264)"/>
<mask id="path-83-inside-42_309_4264" fill="white">
<path d="M258 0H252V18H258V0Z"/>
</mask>
<path d="M252 18V19H251V18H252ZM258 18H259V19H258V18ZM253 0V18H251V0H253ZM252 17H258V19H252V17ZM257 18V0H259V18H257Z" fill="#EE0000" mask="url(#path-83-inside-42_309_4264)"/>
<mask id="path-85-inside-43_309_4264" fill="white">
<path d="M249 0H243V26H249V0Z"/>
</mask>
<path d="M243 26V27H242V26H243ZM249 26H250V27H249V26ZM244 0V26H242V0H244ZM243 25H249V27H243V25ZM248 26V0H250V26H248Z" fill="#EE0000" mask="url(#path-85-inside-43_309_4264)"/>
<mask id="path-87-inside-44_309_4264" fill="white">
<path d="M240 0H234V18H240V0Z"/>
</mask>
<path d="M234 18V19H233V18H234ZM240 18H241V19H240V18ZM235 0V18H233V0H235ZM234 17H240V19H234V17ZM239 18V0H241V18H239Z" fill="#EE0000" mask="url(#path-87-inside-44_309_4264)"/>
<mask id="path-89-inside-45_309_4264" fill="white">
<path d="M231 0H225V30H231V0Z"/>
</mask>
<path d="M225 30V31H224V30H225ZM231 30H232V31H231V30ZM226 0V30H224V0H226ZM225 29H231V31H225V29ZM230 30V0H232V30H230Z" fill="#EE0000" mask="url(#path-89-inside-45_309_4264)"/>
<mask id="path-91-inside-46_309_4264" fill="white">
<path d="M222 0H216V12H222V0Z"/>
</mask>
<path d="M216 12V13H215V12H216ZM222 12H223V13H222V12ZM217 0V12H215V0H217ZM216 11H222V13H216V11ZM221 12V0H223V12H221Z" fill="#EE0000" mask="url(#path-91-inside-46_309_4264)"/>
<mask id="path-93-inside-47_309_4264" fill="white">
<path d="M213 0H207V36H213V0Z"/>
</mask>
<path d="M207 36V37H206V36H207ZM213 36H214V37H213V36ZM208 0V36H206V0H208ZM207 35H213V37H207V35ZM212 36V0H214V36H212Z" fill="#EE0000" mask="url(#path-93-inside-47_309_4264)"/>
<mask id="path-95-inside-48_309_4264" fill="white">
<path d="M204 0H198V18H204V0Z"/>
</mask>
<path d="M198 18V19H197V18H198ZM204 18H205V19H204V18ZM199 0V18H197V0H199ZM198 17H204V19H198V17ZM203 18V0H205V18H203Z" fill="#EE0000" mask="url(#path-95-inside-48_309_4264)"/>
<mask id="path-97-inside-49_309_4264" fill="white">
<path d="M195 0H189V26H195V0Z"/>
</mask>
<path d="M189 26V27H188V26H189ZM195 26H196V27H195V26ZM190 0V26H188V0H190ZM189 25H195V27H189V25ZM194 26V0H196V26H194Z" fill="#EE0000" mask="url(#path-97-inside-49_309_4264)"/>
<mask id="path-99-inside-50_309_4264" fill="white">
<path d="M186 0H180V20H186V0Z"/>
</mask>
<path d="M180 20V21H179V20H180ZM186 20H187V21H186V20ZM181 0V20H179V0H181ZM180 19H186V21H180V19ZM185 20V0H187V20H185Z" fill="#EE0000" mask="url(#path-99-inside-50_309_4264)"/>
<mask id="path-101-inside-51_309_4264" fill="white">
<path d="M717 0H711V57H717V0Z"/>
</mask>
<path d="M711 57V58H710V57H711ZM717 57H718V58H717V57ZM712 0V57H710V0H712ZM711 56H717V58H711V56ZM716 57V0H718V57H716Z" fill="#EE0000" mask="url(#path-101-inside-51_309_4264)"/>
<mask id="path-103-inside-52_309_4264" fill="white">
<path d="M708 0H702V80H708V0Z"/>
</mask>
<path d="M702 80V81H701V80H702ZM708 80H709V81H708V80ZM703 0V80H701V0H703ZM702 79H708V81H702V79ZM707 80V0H709V80H707Z" fill="#EE0000" mask="url(#path-103-inside-52_309_4264)"/>
<mask id="path-105-inside-53_309_4264" fill="white">
<path d="M699 0H693V39H699V0Z"/>
</mask>
<path d="M693 39V40H692V39H693ZM699 39H700V40H699V39ZM694 0V39H692V0H694ZM693 38H699V40H693V38ZM698 39V0H700V39H698Z" fill="#EE0000" mask="url(#path-105-inside-53_309_4264)"/>
<mask id="path-107-inside-54_309_4264" fill="white">
<path d="M690 0H684V57H690V0Z"/>
</mask>
<path d="M684 57V58H683V57H684ZM690 57H691V58H690V57ZM685 0V57H683V0H685ZM684 56H690V58H684V56ZM689 57V0H691V57H689Z" fill="#EE0000" mask="url(#path-107-inside-54_309_4264)"/>
<mask id="path-109-inside-55_309_4264" fill="white">
<path d="M681 0H675V43H681V0Z"/>
</mask>
<path d="M675 43V44H674V43H675ZM681 43H682V44H681V43ZM676 0V43H674V0H676ZM675 42H681V44H675V42ZM680 43V0H682V43H680Z" fill="#EE0000" mask="url(#path-109-inside-55_309_4264)"/>
<mask id="path-111-inside-56_309_4264" fill="white">
<path d="M672 0H666V53H672V0Z"/>
</mask>
<path d="M666 53V54H665V53H666ZM672 53H673V54H672V53ZM667 0V53H665V0H667ZM666 52H672V54H666V52ZM671 53V0H673V53H671Z" fill="#EE0000" mask="url(#path-111-inside-56_309_4264)"/>
<mask id="path-113-inside-57_309_4264" fill="white">
<path d="M663 0H657V32H663V0Z"/>
</mask>
<path d="M657 32V33H656V32H657ZM663 32H664V33H663V32ZM658 0V32H656V0H658ZM657 31H663V33H657V31ZM662 32V0H664V32H662Z" fill="#EE0000" mask="url(#path-113-inside-57_309_4264)"/>
<mask id="path-115-inside-58_309_4264" fill="white">
<path d="M654 0H648V28H654V0Z"/>
</mask>
<path d="M648 28V29H647V28H648ZM654 28H655V29H654V28ZM649 0V28H647V0H649ZM648 27H654V29H648V27ZM653 28V0H655V28H653Z" fill="#EE0000" mask="url(#path-115-inside-58_309_4264)"/>
<mask id="path-117-inside-59_309_4264" fill="white">
<path d="M645 0H639V46H645V0Z"/>
</mask>
<path d="M639 46V47H638V46H639ZM645 46H646V47H645V46ZM640 0V46H638V0H640ZM639 45H645V47H639V45ZM644 46V0H646V46H644Z" fill="#EE0000" mask="url(#path-117-inside-59_309_4264)"/>
<mask id="path-119-inside-60_309_4264" fill="white">
<path d="M636 0H630V50H636V0Z"/>
</mask>
<path d="M630 50V51H629V50H630ZM636 50H637V51H636V50ZM631 0V50H629V0H631ZM630 49H636V51H630V49ZM635 50V0H637V50H635Z" fill="#EE0000" mask="url(#path-119-inside-60_309_4264)"/>
<mask id="path-121-inside-61_309_4264" fill="white">
<path d="M627 0H621V60H627V0Z"/>
</mask>
<path d="M621 60V61H620V60H621ZM627 60H628V61H627V60ZM622 0V60H620V0H622ZM621 59H627V61H621V59ZM626 60V0H628V60H626Z" fill="#EE0000" mask="url(#path-121-inside-61_309_4264)"/>
<mask id="path-123-inside-62_309_4264" fill="white">
<path d="M618 0H612V71H618V0Z"/>
</mask>
<path d="M612 71V72H611V71H612ZM618 71H619V72H618V71ZM613 0V71H611V0H613ZM612 70H618V72H612V70ZM617 71V0H619V71H617Z" fill="#EE0000" mask="url(#path-123-inside-62_309_4264)"/>
<mask id="path-125-inside-63_309_4264" fill="white">
<path d="M609 0H603V43H609V0Z"/>
</mask>
<path d="M603 43V44H602V43H603ZM609 43H610V44H609V43ZM604 0V43H602V0H604ZM603 42H609V44H603V42ZM608 43V0H610V43H608Z" fill="#EE0000" mask="url(#path-125-inside-63_309_4264)"/>
<mask id="path-127-inside-64_309_4264" fill="white">
<path d="M600 0H594V60H600V0Z"/>
</mask>
<path d="M594 60V61H593V60H594ZM600 60H601V61H600V60ZM595 0V60H593V0H595ZM594 59H600V61H594V59ZM599 60V0H601V60H599Z" fill="#EE0000" mask="url(#path-127-inside-64_309_4264)"/>
<mask id="path-129-inside-65_309_4264" fill="white">
<path d="M591 0H585V36H591V0Z"/>
</mask>
<path d="M585 36V37H584V36H585ZM591 36H592V37H591V36ZM586 0V36H584V0H586ZM585 35H591V37H585V35ZM590 36V0H592V36H590Z" fill="#EE0000" mask="url(#path-129-inside-65_309_4264)"/>
<mask id="path-131-inside-66_309_4264" fill="white">
<path d="M582 0H576V50H582V0Z"/>
</mask>
<path d="M576 50V51H575V50H576ZM582 50H583V51H582V50ZM577 0V50H575V0H577ZM576 49H582V51H576V49ZM581 50V0H583V50H581Z" fill="#EE0000" mask="url(#path-131-inside-66_309_4264)"/>
<mask id="path-133-inside-67_309_4264" fill="white">
<path d="M573 0H567V53H573V0Z"/>
</mask>
<path d="M567 53V54H566V53H567ZM573 53H574V54H573V53ZM568 0V53H566V0H568ZM567 52H573V54H567V52ZM572 53V0H574V53H572Z" fill="#EE0000" mask="url(#path-133-inside-67_309_4264)"/>
<mask id="path-135-inside-68_309_4264" fill="white">
<path d="M564 0H558V32H564V0Z"/>
</mask>
<path d="M558 32V33H557V32H558ZM564 32H565V33H564V32ZM559 0V32H557V0H559ZM558 31H564V33H558V31ZM563 32V0H565V32H563Z" fill="#EE0000" mask="url(#path-135-inside-68_309_4264)"/>
<mask id="path-137-inside-69_309_4264" fill="white">
<path d="M555 0H549V64H555V0Z"/>
</mask>
<path d="M549 64V65H548V64H549ZM555 64H556V65H555V64ZM550 0V64H548V0H550ZM549 63H555V65H549V63ZM554 64V0H556V64H554Z" fill="#EE0000" mask="url(#path-137-inside-69_309_4264)"/>
<mask id="path-139-inside-70_309_4264" fill="white">
<path d="M546 0H540V28H546V0Z"/>
</mask>
<path d="M540 28V29H539V28H540ZM546 28H547V29H546V28ZM541 0V28H539V0H541ZM540 27H546V29H540V27ZM545 28V0H547V28H545Z" fill="#EE0000" mask="url(#path-139-inside-70_309_4264)"/>
<mask id="path-141-inside-71_309_4264" fill="white">
<path d="M537 0H531V12H537V0Z"/>
</mask>
<path d="M531 12V13H530V12H531ZM537 12H538V13H537V12ZM532 0V12H530V0H532ZM531 11H537V13H531V11ZM536 12V0H538V12H536Z" fill="#EE0000" mask="url(#path-141-inside-71_309_4264)"/>
<mask id="path-143-inside-72_309_4264" fill="white">
<path d="M528 0H522V32H528V0Z"/>
</mask>
<path d="M522 32V33H521V32H522ZM528 32H529V33H528V32ZM523 0V32H521V0H523ZM522 31H528V33H522V31ZM527 32V0H529V32H527Z" fill="#EE0000" mask="url(#path-143-inside-72_309_4264)"/>
<mask id="path-145-inside-73_309_4264" fill="white">
<path d="M519 0H513V46H519V0Z"/>
</mask>
<path d="M513 46V47H512V46H513ZM519 46H520V47H519V46ZM514 0V46H512V0H514ZM513 45H519V47H513V45ZM518 46V0H520V46H518Z" fill="#EE0000" mask="url(#path-145-inside-73_309_4264)"/>
<mask id="path-147-inside-74_309_4264" fill="white">
<path d="M510 0H504V32H510V0Z"/>
</mask>
<path d="M504 32V33H503V32H504ZM510 32H511V33H510V32ZM505 0V32H503V0H505ZM504 31H510V33H504V31ZM509 32V0H511V32H509Z" fill="#EE0000" mask="url(#path-147-inside-74_309_4264)"/>
<mask id="path-149-inside-75_309_4264" fill="white">
<path d="M501 0H495V53H501V0Z"/>
</mask>
<path d="M495 53V54H494V53H495ZM501 53H502V54H501V53ZM496 0V53H494V0H496ZM495 52H501V54H495V52ZM500 53V0H502V53H500Z" fill="#EE0000" mask="url(#path-149-inside-75_309_4264)"/>
<mask id="path-151-inside-76_309_4264" fill="white">
<path d="M492 0H486V21H492V0Z"/>
</mask>
<path d="M486 21V22H485V21H486ZM492 21H493V22H492V21ZM487 0V21H485V0H487ZM486 20H492V22H486V20ZM491 21V0H493V21H491Z" fill="#EE0000" mask="url(#path-151-inside-76_309_4264)"/>
<mask id="path-153-inside-77_309_4264" fill="white">
<path d="M483 0H477V64H483V0Z"/>
</mask>
<path d="M477 64V65H476V64H477ZM483 64H484V65H483V64ZM478 0V64H476V0H478ZM477 63H483V65H477V63ZM482 64V0H484V64H482Z" fill="#EE0000" mask="url(#path-153-inside-77_309_4264)"/>
<mask id="path-155-inside-78_309_4264" fill="white">
<path d="M474 0H468V32H474V0Z"/>
</mask>
<path d="M468 32V33H467V32H468ZM474 32H475V33H474V32ZM469 0V32H467V0H469ZM468 31H474V33H468V31ZM473 32V0H475V32H473Z" fill="#EE0000" mask="url(#path-155-inside-78_309_4264)"/>
<mask id="path-157-inside-79_309_4264" fill="white">
<path d="M465 0H459V46H465V0Z"/>
</mask>
<path d="M459 46V47H458V46H459ZM465 46H466V47H465V46ZM460 0V46H458V0H460ZM459 45H465V47H459V45ZM464 46V0H466V46H464Z" fill="#EE0000" mask="url(#path-157-inside-79_309_4264)"/>
<mask id="path-159-inside-80_309_4264" fill="white">
<path d="M456 0H450V36H456V0Z"/>
</mask>
<path d="M450 36V37H449V36H450ZM456 36H457V37H456V36ZM451 0V36H449V0H451ZM450 35H456V37H450V35ZM455 36V0H457V36H455Z" fill="#EE0000" mask="url(#path-159-inside-80_309_4264)"/>
<mask id="path-161-inside-81_309_4264" fill="white">
<path d="M720 0H726V39H720V0Z"/>
</mask>
<path d="M726 39V40H727V39H726ZM720 39H719V40H720V39ZM725 0V39H727V0H725ZM726 38H720V40H726V38ZM721 39V0H719V39H721Z" fill="#EE0000" mask="url(#path-161-inside-81_309_4264)"/>
<mask id="path-163-inside-82_309_4264" fill="white">
<path d="M729 0H735V55H729V0Z"/>
</mask>
<path d="M735 55V56H736V55H735ZM729 55H728V56H729V55ZM734 0V55H736V0H734ZM735 54H729V56H735V54ZM730 55V0H728V55H730Z" fill="#EE0000" mask="url(#path-163-inside-82_309_4264)"/>
<mask id="path-165-inside-83_309_4264" fill="white">
<path d="M738 0H744V27H738V0Z"/>
</mask>
<path d="M744 27V28H745V27H744ZM738 27H737V28H738V27ZM743 0V27H745V0H743ZM744 26H738V28H744V26ZM739 27V0H737V27H739Z" fill="#EE0000" mask="url(#path-165-inside-83_309_4264)"/>
<mask id="path-167-inside-84_309_4264" fill="white">
<path d="M747 0H753V39H747V0Z"/>
</mask>
<path d="M753 39V40H754V39H753ZM747 39H746V40H747V39ZM752 0V39H754V0H752ZM753 38H747V40H753V38ZM748 39V0H746V39H748Z" fill="#EE0000" mask="url(#path-167-inside-84_309_4264)"/>
<mask id="path-169-inside-85_309_4264" fill="white">
<path d="M756 0H762V29H756V0Z"/>
</mask>
<path d="M762 29V30H763V29H762ZM756 29H755V30H756V29ZM761 0V29H763V0H761ZM762 28H756V30H762V28ZM757 29V0H755V29H757Z" fill="#EE0000" mask="url(#path-169-inside-85_309_4264)"/>
<mask id="path-171-inside-86_309_4264" fill="white">
<path d="M765 0H771V37H765V0Z"/>
</mask>
<path d="M771 37V38H772V37H771ZM765 37H764V38H765V37ZM770 0V37H772V0H770ZM771 36H765V38H771V36ZM766 37V0H764V37H766Z" fill="#EE0000" mask="url(#path-171-inside-86_309_4264)"/>
<mask id="path-173-inside-87_309_4264" fill="white">
<path d="M774 0H780V22H774V0Z"/>
</mask>
<path d="M780 22V23H781V22H780ZM774 22H773V23H774V22ZM779 0V22H781V0H779ZM780 21H774V23H780V21ZM775 22V0H773V22H775Z" fill="#EE0000" mask="url(#path-173-inside-87_309_4264)"/>
<mask id="path-175-inside-88_309_4264" fill="white">
<path d="M783 0H789V20H783V0Z"/>
</mask>
<path d="M789 20V21H790V20H789ZM783 20H782V21H783V20ZM788 0V20H790V0H788ZM789 19H783V21H789V19ZM784 20V0H782V20H784Z" fill="#EE0000" mask="url(#path-175-inside-88_309_4264)"/>
<mask id="path-177-inside-89_309_4264" fill="white">
<path d="M792 0H798V32H792V0Z"/>
</mask>
<path d="M798 32V33H799V32H798ZM792 32H791V33H792V32ZM797 0V32H799V0H797ZM798 31H792V33H798V31ZM793 32V0H791V32H793Z" fill="#EE0000" mask="url(#path-177-inside-89_309_4264)"/>
<mask id="path-179-inside-90_309_4264" fill="white">
<path d="M801 0H807V34H801V0Z"/>
</mask>
<path d="M807 34V35H808V34H807ZM801 34H800V35H801V34ZM806 0V34H808V0H806ZM807 33H801V35H807V33ZM802 34V0H800V34H802Z" fill="#EE0000" mask="url(#path-179-inside-90_309_4264)"/>
<mask id="path-181-inside-91_309_4264" fill="white">
<path d="M810 0H816V42H810V0Z"/>
</mask>
<path d="M816 42V43H817V42H816ZM810 42H809V43H810V42ZM815 0V42H817V0H815ZM816 41H810V43H816V41ZM811 42V0H809V42H811Z" fill="#EE0000" mask="url(#path-181-inside-91_309_4264)"/>
<mask id="path-183-inside-92_309_4264" fill="white">
<path d="M819 0H825V49H819V0Z"/>
</mask>
<path d="M825 49V50H826V49H825ZM819 49H818V50H819V49ZM824 0V49H826V0H824ZM825 48H819V50H825V48ZM820 49V0H818V49H820Z" fill="#EE0000" mask="url(#path-183-inside-92_309_4264)"/>
<mask id="path-185-inside-93_309_4264" fill="white">
<path d="M828 0H834V29H828V0Z"/>
</mask>
<path d="M834 29V30H835V29H834ZM828 29H827V30H828V29ZM833 0V29H835V0H833ZM834 28H828V30H834V28ZM829 29V0H827V29H829Z" fill="#EE0000" mask="url(#path-185-inside-93_309_4264)"/>
<mask id="path-187-inside-94_309_4264" fill="white">
<path d="M837 0H843V42H837V0Z"/>
</mask>
<path d="M843 42V43H844V42H843ZM837 42H836V43H837V42ZM842 0V42H844V0H842ZM843 41H837V43H843V41ZM838 42V0H836V42H838Z" fill="#EE0000" mask="url(#path-187-inside-94_309_4264)"/>
<mask id="path-189-inside-95_309_4264" fill="white">
<path d="M846 0H852V24H846V0Z"/>
</mask>
<path d="M852 24V25H853V24H852ZM846 24H845V25H846V24ZM851 0V24H853V0H851ZM852 23H846V25H852V23ZM847 24V0H845V24H847Z" fill="#EE0000" mask="url(#path-189-inside-95_309_4264)"/>
<mask id="path-191-inside-96_309_4264" fill="white">
<path d="M855 0H861V34H855V0Z"/>
</mask>
<path d="M861 34V35H862V34H861ZM855 34H854V35H855V34ZM860 0V34H862V0H860ZM861 33H855V35H861V33ZM856 34V0H854V34H856Z" fill="#EE0000" mask="url(#path-191-inside-96_309_4264)"/>
<mask id="path-193-inside-97_309_4264" fill="white">
<path d="M864 0H870V37H864V0Z"/>
</mask>
<path d="M870 37V38H871V37H870ZM864 37H863V38H864V37ZM869 0V37H871V0H869ZM870 36H864V38H870V36ZM865 37V0H863V37H865Z" fill="#EE0000" mask="url(#path-193-inside-97_309_4264)"/>
<mask id="path-195-inside-98_309_4264" fill="white">
<path d="M873 0H879V22H873V0Z"/>
</mask>
<path d="M879 22V23H880V22H879ZM873 22H872V23H873V22ZM878 0V22H880V0H878ZM879 21H873V23H879V21ZM874 22V0H872V22H874Z" fill="#EE0000" mask="url(#path-195-inside-98_309_4264)"/>
<mask id="path-197-inside-99_309_4264" fill="white">
<path d="M882 0H888V44H882V0Z"/>
</mask>
<path d="M888 44V45H889V44H888ZM882 44H881V45H882V44ZM887 0V44H889V0H887ZM888 43H882V45H888V43ZM883 44V0H881V44H883Z" fill="#EE0000" mask="url(#path-197-inside-99_309_4264)"/>
<mask id="path-199-inside-100_309_4264" fill="white">
<path d="M891 0H897V20H891V0Z"/>
</mask>
<path d="M897 20V21H898V20H897ZM891 20H890V21H891V20ZM896 0V20H898V0H896ZM897 19H891V21H897V19ZM892 20V0H890V20H892Z" fill="#EE0000" mask="url(#path-199-inside-100_309_4264)"/>
<mask id="path-201-inside-101_309_4264" fill="white">
<path d="M900 0H906V9H900V0Z"/>
</mask>
<path d="M906 9V10H907V9H906ZM900 9H899V10H900V9ZM905 0V9H907V0H905ZM906 8H900V10H906V8ZM901 9V0H899V9H901Z" fill="#EE0000" mask="url(#path-201-inside-101_309_4264)"/>
<mask id="path-203-inside-102_309_4264" fill="white">
<path d="M909 0H915V22H909V0Z"/>
</mask>
<path d="M915 22V23H916V22H915ZM909 22H908V23H909V22ZM914 0V22H916V0H914ZM915 21H909V23H915V21ZM910 22V0H908V22H910Z" fill="#EE0000" mask="url(#path-203-inside-102_309_4264)"/>
<mask id="path-205-inside-103_309_4264" fill="white">
<path d="M918 0H924V32H918V0Z"/>
</mask>
<path d="M924 32V33H925V32H924ZM918 32H917V33H918V32ZM923 0V32H925V0H923ZM924 31H918V33H924V31ZM919 32V0H917V32H919Z" fill="#EE0000" mask="url(#path-205-inside-103_309_4264)"/>
<mask id="path-207-inside-104_309_4264" fill="white">
<path d="M927 0H933V22H927V0Z"/>
</mask>
<path d="M933 22V23H934V22H933ZM927 22H926V23H927V22ZM932 0V22H934V0H932ZM933 21H927V23H933V21ZM928 22V0H926V22H928Z" fill="#EE0000" mask="url(#path-207-inside-104_309_4264)"/>
<mask id="path-209-inside-105_309_4264" fill="white">
<path d="M936 0H942V37H936V0Z"/>
</mask>
<path d="M942 37V38H943V37H942ZM936 37H935V38H936V37ZM941 0V37H943V0H941ZM942 36H936V38H942V36ZM937 37V0H935V37H937Z" fill="#EE0000" mask="url(#path-209-inside-105_309_4264)"/>
<mask id="path-211-inside-106_309_4264" fill="white">
<path d="M945 0H951V15H945V0Z"/>
</mask>
<path d="M951 15V16H952V15H951ZM945 15H944V16H945V15ZM950 0V15H952V0H950ZM951 14H945V16H951V14ZM946 15V0H944V15H946Z" fill="#EE0000" mask="url(#path-211-inside-106_309_4264)"/>
<mask id="path-213-inside-107_309_4264" fill="white">
<path d="M954 0H960V44H954V0Z"/>
</mask>
<path d="M960 44V45H961V44H960ZM954 44H953V45H954V44ZM959 0V44H961V0H959ZM960 43H954V45H960V43ZM955 44V0H953V44H955Z" fill="#EE0000" mask="url(#path-213-inside-107_309_4264)"/>
<mask id="path-215-inside-108_309_4264" fill="white">
<path d="M963 0H969V22H963V0Z"/>
</mask>
<path d="M969 22V23H970V22H969ZM963 22H962V23H963V22ZM968 0V22H970V0H968ZM969 21H963V23H969V21ZM964 22V0H962V22H964Z" fill="#EE0000" mask="url(#path-215-inside-108_309_4264)"/>
<mask id="path-217-inside-109_309_4264" fill="white">
<path d="M972 0H978V32H972V0Z"/>
</mask>
<path d="M978 32V33H979V32H978ZM972 32H971V33H972V32ZM977 0V32H979V0H977ZM978 31H972V33H978V31ZM973 32V0H971V32H973Z" fill="#EE0000" mask="url(#path-217-inside-109_309_4264)"/>
<mask id="path-219-inside-110_309_4264" fill="white">
<path d="M981 0H987V24H981V0Z"/>
</mask>
<path d="M987 24V25H988V24H987ZM981 24H980V25H981V24ZM986 0V24H988V0H986ZM987 23H981V25H987V23ZM982 24V0H980V24H982Z" fill="#EE0000" mask="url(#path-219-inside-110_309_4264)"/>
<mask id="path-221-inside-111_309_4264" fill="white">
<path d="M1257 0H1251V50H1257V0Z"/>
</mask>
<path d="M1251 50V51H1250V50H1251ZM1257 50H1258V51H1257V50ZM1252 0V50H1250V0H1252ZM1251 49H1257V51H1251V49ZM1256 50V0H1258V50H1256Z" fill="#EE0000" mask="url(#path-221-inside-111_309_4264)"/>
<mask id="path-223-inside-112_309_4264" fill="white">
<path d="M1248 0H1242V70H1248V0Z"/>
</mask>
<path d="M1242 70V71H1241V70H1242ZM1248 70H1249V71H1248V70ZM1243 0V70H1241V0H1243ZM1242 69H1248V71H1242V69ZM1247 70V0H1249V70H1247Z" fill="#EE0000" mask="url(#path-223-inside-112_309_4264)"/>
<mask id="path-225-inside-113_309_4264" fill="white">
<path d="M1239 0H1233V34H1239V0Z"/>
</mask>
<path d="M1233 34V35H1232V34H1233ZM1239 34H1240V35H1239V34ZM1234 0V34H1232V0H1234ZM1233 33H1239V35H1233V33ZM1238 34V0H1240V34H1238Z" fill="#EE0000" mask="url(#path-225-inside-113_309_4264)"/>
<mask id="path-227-inside-114_309_4264" fill="white">
<path d="M1230 0H1224V50H1230V0Z"/>
</mask>
<path d="M1224 50V51H1223V50H1224ZM1230 50H1231V51H1230V50ZM1225 0V50H1223V0H1225ZM1224 49H1230V51H1224V49ZM1229 50V0H1231V50H1229Z" fill="#EE0000" mask="url(#path-227-inside-114_309_4264)"/>
<mask id="path-229-inside-115_309_4264" fill="white">
<path d="M1221 0H1215V37H1221V0Z"/>
</mask>
<path d="M1215 37V38H1214V37H1215ZM1221 37H1222V38H1221V37ZM1216 0V37H1214V0H1216ZM1215 36H1221V38H1215V36ZM1220 37V0H1222V37H1220Z" fill="#EE0000" mask="url(#path-229-inside-115_309_4264)"/>
<mask id="path-231-inside-116_309_4264" fill="white">
<path d="M1212 0H1206V47H1212V0Z"/>
</mask>
<path d="M1206 47V48H1205V47H1206ZM1212 47H1213V48H1212V47ZM1207 0V47H1205V0H1207ZM1206 46H1212V48H1206V46ZM1211 47V0H1213V47H1211Z" fill="#EE0000" mask="url(#path-231-inside-116_309_4264)"/>
<mask id="path-233-inside-117_309_4264" fill="white">
<path d="M1203 0H1197V28H1203V0Z"/>
</mask>
<path d="M1197 28V29H1196V28H1197ZM1203 28H1204V29H1203V28ZM1198 0V28H1196V0H1198ZM1197 27H1203V29H1197V27ZM1202 28V0H1204V28H1202Z" fill="#EE0000" mask="url(#path-233-inside-117_309_4264)"/>
<mask id="path-235-inside-118_309_4264" fill="white">
<path d="M1194 0H1188V25H1194V0Z"/>
</mask>
<path d="M1188 25V26H1187V25H1188ZM1194 25H1195V26H1194V25ZM1189 0V25H1187V0H1189ZM1188 24H1194V26H1188V24ZM1193 25V0H1195V25H1193Z" fill="#EE0000" mask="url(#path-235-inside-118_309_4264)"/>
<mask id="path-237-inside-119_309_4264" fill="white">
<path d="M1185 0H1179V40H1185V0Z"/>
</mask>
<path d="M1179 40V41H1178V40H1179ZM1185 40H1186V41H1185V40ZM1180 0V40H1178V0H1180ZM1179 39H1185V41H1179V39ZM1184 40V0H1186V40H1184Z" fill="#EE0000" mask="url(#path-237-inside-119_309_4264)"/>
<mask id="path-239-inside-120_309_4264" fill="white">
<path d="M1176 0H1170V44H1176V0Z"/>
</mask>
<path d="M1170 44V45H1169V44H1170ZM1176 44H1177V45H1176V44ZM1171 0V44H1169V0H1171ZM1170 43H1176V45H1170V43ZM1175 44V0H1177V44H1175Z" fill="#EE0000" mask="url(#path-239-inside-120_309_4264)"/>
<mask id="path-241-inside-121_309_4264" fill="white">
<path d="M1167 0H1161V53H1167V0Z"/>
</mask>
<path d="M1161 53V54H1160V53H1161ZM1167 53H1168V54H1167V53ZM1162 0V53H1160V0H1162ZM1161 52H1167V54H1161V52ZM1166 53V0H1168V53H1166Z" fill="#EE0000" mask="url(#path-241-inside-121_309_4264)"/>
<mask id="path-243-inside-122_309_4264" fill="white">
<path d="M1158 0H1152V62H1158V0Z"/>
</mask>
<path d="M1152 62V63H1151V62H1152ZM1158 62H1159V63H1158V62ZM1153 0V62H1151V0H1153ZM1152 61H1158V63H1152V61ZM1157 62V0H1159V62H1157Z" fill="#EE0000" mask="url(#path-243-inside-122_309_4264)"/>
<mask id="path-245-inside-123_309_4264" fill="white">
<path d="M1149 0H1143V37H1149V0Z"/>
</mask>
<path d="M1143 37V38H1142V37H1143ZM1149 37H1150V38H1149V37ZM1144 0V37H1142V0H1144ZM1143 36H1149V38H1143V36ZM1148 37V0H1150V37H1148Z" fill="#EE0000" mask="url(#path-245-inside-123_309_4264)"/>
<mask id="path-247-inside-124_309_4264" fill="white">
<path d="M1140 0H1134V53H1140V0Z"/>
</mask>
<path d="M1134 53V54H1133V53H1134ZM1140 53H1141V54H1140V53ZM1135 0V53H1133V0H1135ZM1134 52H1140V54H1134V52ZM1139 53V0H1141V53H1139Z" fill="#EE0000" mask="url(#path-247-inside-124_309_4264)"/>
<mask id="path-249-inside-125_309_4264" fill="white">
<path d="M1131 0H1125V31H1131V0Z"/>
</mask>
<path d="M1125 31V32H1124V31H1125ZM1131 31H1132V32H1131V31ZM1126 0V31H1124V0H1126ZM1125 30H1131V32H1125V30ZM1130 31V0H1132V31H1130Z" fill="#EE0000" mask="url(#path-249-inside-125_309_4264)"/>
<mask id="path-251-inside-126_309_4264" fill="white">
<path d="M1122 0H1116V44H1122V0Z"/>
</mask>
<path d="M1116 44V45H1115V44H1116ZM1122 44H1123V45H1122V44ZM1117 0V44H1115V0H1117ZM1116 43H1122V45H1116V43ZM1121 44V0H1123V44H1121Z" fill="#EE0000" mask="url(#path-251-inside-126_309_4264)"/>
<mask id="path-253-inside-127_309_4264" fill="white">
<path d="M1113 0H1107V47H1113V0Z"/>
</mask>
<path d="M1107 47V48H1106V47H1107ZM1113 47H1114V48H1113V47ZM1108 0V47H1106V0H1108ZM1107 46H1113V48H1107V46ZM1112 47V0H1114V47H1112Z" fill="#EE0000" mask="url(#path-253-inside-127_309_4264)"/>
<mask id="path-255-inside-128_309_4264" fill="white">
<path d="M1104 0H1098V28H1104V0Z"/>
</mask>
<path d="M1098 28V29H1097V28H1098ZM1104 28H1105V29H1104V28ZM1099 0V28H1097V0H1099ZM1098 27H1104V29H1098V27ZM1103 28V0H1105V28H1103Z" fill="#EE0000" mask="url(#path-255-inside-128_309_4264)"/>
<mask id="path-257-inside-129_309_4264" fill="white">
<path d="M1095 0H1089V56H1095V0Z"/>
</mask>
<path d="M1089 56V57H1088V56H1089ZM1095 56H1096V57H1095V56ZM1090 0V56H1088V0H1090ZM1089 55H1095V57H1089V55ZM1094 56V0H1096V56H1094Z" fill="#EE0000" mask="url(#path-257-inside-129_309_4264)"/>
<mask id="path-259-inside-130_309_4264" fill="white">
<path d="M1086 0H1080V25H1086V0Z"/>
</mask>
<path d="M1080 25V26H1079V25H1080ZM1086 25H1087V26H1086V25ZM1081 0V25H1079V0H1081ZM1080 24H1086V26H1080V24ZM1085 25V0H1087V25H1085Z" fill="#EE0000" mask="url(#path-259-inside-130_309_4264)"/>
<mask id="path-261-inside-131_309_4264" fill="white">
<path d="M1077 0H1071V11H1077V0Z"/>
</mask>
<path d="M1071 11V12H1070V11H1071ZM1077 11H1078V12H1077V11ZM1072 0V11H1070V0H1072ZM1071 10H1077V12H1071V10ZM1076 11V0H1078V11H1076Z" fill="#EE0000" mask="url(#path-261-inside-131_309_4264)"/>
<mask id="path-263-inside-132_309_4264" fill="white">
<path d="M1068 0H1062V28H1068V0Z"/>
</mask>
<path d="M1062 28V29H1061V28H1062ZM1068 28H1069V29H1068V28ZM1063 0V28H1061V0H1063ZM1062 27H1068V29H1062V27ZM1067 28V0H1069V28H1067Z" fill="#EE0000" mask="url(#path-263-inside-132_309_4264)"/>
<mask id="path-265-inside-133_309_4264" fill="white">
<path d="M1059 0H1053V40H1059V0Z"/>
</mask>
<path d="M1053 40V41H1052V40H1053ZM1059 40H1060V41H1059V40ZM1054 0V40H1052V0H1054ZM1053 39H1059V41H1053V39ZM1058 40V0H1060V40H1058Z" fill="#EE0000" mask="url(#path-265-inside-133_309_4264)"/>
<mask id="path-267-inside-134_309_4264" fill="white">
<path d="M1050 0H1044V28H1050V0Z"/>
</mask>
<path d="M1044 28V29H1043V28H1044ZM1050 28H1051V29H1050V28ZM1045 0V28H1043V0H1045ZM1044 27H1050V29H1044V27ZM1049 28V0H1051V28H1049Z" fill="#EE0000" mask="url(#path-267-inside-134_309_4264)"/>
<mask id="path-269-inside-135_309_4264" fill="white">
<path d="M1041 0H1035V47H1041V0Z"/>
</mask>
<path d="M1035 47V48H1034V47H1035ZM1041 47H1042V48H1041V47ZM1036 0V47H1034V0H1036ZM1035 46H1041V48H1035V46ZM1040 47V0H1042V47H1040Z" fill="#EE0000" mask="url(#path-269-inside-135_309_4264)"/>
<mask id="path-271-inside-136_309_4264" fill="white">
<path d="M1032 0H1026V19H1032V0Z"/>
</mask>
<path d="M1026 19V20H1025V19H1026ZM1032 19H1033V20H1032V19ZM1027 0V19H1025V0H1027ZM1026 18H1032V20H1026V18ZM1031 19V0H1033V19H1031Z" fill="#EE0000" mask="url(#path-271-inside-136_309_4264)"/>
<mask id="path-273-inside-137_309_4264" fill="white">
<path d="M1023 0H1017V56H1023V0Z"/>
</mask>
<path d="M1017 56V57H1016V56H1017ZM1023 56H1024V57H1023V56ZM1018 0V56H1016V0H1018ZM1017 55H1023V57H1017V55ZM1022 56V0H1024V56H1022Z" fill="#EE0000" mask="url(#path-273-inside-137_309_4264)"/>
<mask id="path-275-inside-138_309_4264" fill="white">
<path d="M1014 0H1008V28H1014V0Z"/>
</mask>
<path d="M1008 28V29H1007V28H1008ZM1014 28H1015V29H1014V28ZM1009 0V28H1007V0H1009ZM1008 27H1014V29H1008V27ZM1013 28V0H1015V28H1013Z" fill="#EE0000" mask="url(#path-275-inside-138_309_4264)"/>
<mask id="path-277-inside-139_309_4264" fill="white">
<path d="M1005 0H999V40H1005V0Z"/>
</mask>
<path d="M999 40V41H998V40H999ZM1005 40H1006V41H1005V40ZM1000 0V40H998V0H1000ZM999 39H1005V41H999V39ZM1004 40V0H1006V40H1004Z" fill="#EE0000" mask="url(#path-277-inside-139_309_4264)"/>
<mask id="path-279-inside-140_309_4264" fill="white">
<path d="M996 0H990V31H996V0Z"/>
</mask>
<path d="M990 31V32H989V31H990ZM996 31H997V32H996V31ZM991 0V31H989V0H991ZM990 30H996V32H990V30ZM995 31V0H997V31H995Z" fill="#EE0000" mask="url(#path-279-inside-140_309_4264)"/>
<mask id="path-281-inside-141_309_4264" fill="white">
<path d="M1260 0H1266V57H1260V0Z"/>
</mask>
<path d="M1266 57V58H1267V57H1266ZM1260 57H1259V58H1260V57ZM1265 0V57H1267V0H1265ZM1266 56H1260V58H1266V56ZM1261 57V0H1259V57H1261Z" fill="#EE0000" mask="url(#path-281-inside-141_309_4264)"/>
<mask id="path-283-inside-142_309_4264" fill="white">
<path d="M1269 0H1275V80H1269V0Z"/>
</mask>
<path d="M1275 80V81H1276V80H1275ZM1269 80H1268V81H1269V80ZM1274 0V80H1276V0H1274ZM1275 79H1269V81H1275V79ZM1270 80V0H1268V80H1270Z" fill="#EE0000" mask="url(#path-283-inside-142_309_4264)"/>
<mask id="path-285-inside-143_309_4264" fill="white">
<path d="M1278 0H1284V39H1278V0Z"/>
</mask>
<path d="M1284 39V40H1285V39H1284ZM1278 39H1277V40H1278V39ZM1283 0V39H1285V0H1283ZM1284 38H1278V40H1284V38ZM1279 39V0H1277V39H1279Z" fill="#EE0000" mask="url(#path-285-inside-143_309_4264)"/>
<mask id="path-287-inside-144_309_4264" fill="white">
<path d="M1287 0H1293V57H1287V0Z"/>
</mask>
<path d="M1293 57V58H1294V57H1293ZM1287 57H1286V58H1287V57ZM1292 0V57H1294V0H1292ZM1293 56H1287V58H1293V56ZM1288 57V0H1286V57H1288Z" fill="#EE0000" mask="url(#path-287-inside-144_309_4264)"/>
<mask id="path-289-inside-145_309_4264" fill="white">
<path d="M1296 0H1302V43H1296V0Z"/>
</mask>
<path d="M1302 43V44H1303V43H1302ZM1296 43H1295V44H1296V43ZM1301 0V43H1303V0H1301ZM1302 42H1296V44H1302V42ZM1297 43V0H1295V43H1297Z" fill="#EE0000" mask="url(#path-289-inside-145_309_4264)"/>
<mask id="path-291-inside-146_309_4264" fill="white">
<path d="M1305 0H1311V53H1305V0Z"/>
</mask>
<path d="M1311 53V54H1312V53H1311ZM1305 53H1304V54H1305V53ZM1310 0V53H1312V0H1310ZM1311 52H1305V54H1311V52ZM1306 53V0H1304V53H1306Z" fill="#EE0000" mask="url(#path-291-inside-146_309_4264)"/>
<mask id="path-293-inside-147_309_4264" fill="white">
<path d="M1314 0H1320V32H1314V0Z"/>
</mask>
<path d="M1320 32V33H1321V32H1320ZM1314 32H1313V33H1314V32ZM1319 0V32H1321V0H1319ZM1320 31H1314V33H1320V31ZM1315 32V0H1313V32H1315Z" fill="#EE0000" mask="url(#path-293-inside-147_309_4264)"/>
<mask id="path-295-inside-148_309_4264" fill="white">
<path d="M1323 0H1329V28H1323V0Z"/>
</mask>
<path d="M1329 28V29H1330V28H1329ZM1323 28H1322V29H1323V28ZM1328 0V28H1330V0H1328ZM1329 27H1323V29H1329V27ZM1324 28V0H1322V28H1324Z" fill="#EE0000" mask="url(#path-295-inside-148_309_4264)"/>
<mask id="path-297-inside-149_309_4264" fill="white">
<path d="M1332 0H1338V46H1332V0Z"/>
</mask>
<path d="M1338 46V47H1339V46H1338ZM1332 46H1331V47H1332V46ZM1337 0V46H1339V0H1337ZM1338 45H1332V47H1338V45ZM1333 46V0H1331V46H1333Z" fill="#EE0000" mask="url(#path-297-inside-149_309_4264)"/>
<mask id="path-299-inside-150_309_4264" fill="white">
<path d="M1341 0H1347V50H1341V0Z"/>
</mask>
<path d="M1347 50V51H1348V50H1347ZM1341 50H1340V51H1341V50ZM1346 0V50H1348V0H1346ZM1347 49H1341V51H1347V49ZM1342 50V0H1340V50H1342Z" fill="#EE0000" mask="url(#path-299-inside-150_309_4264)"/>
<mask id="path-301-inside-151_309_4264" fill="white">
<path d="M1350 0H1356V60H1350V0Z"/>
</mask>
<path d="M1356 60V61H1357V60H1356ZM1350 60H1349V61H1350V60ZM1355 0V60H1357V0H1355ZM1356 59H1350V61H1356V59ZM1351 60V0H1349V60H1351Z" fill="#EE0000" mask="url(#path-301-inside-151_309_4264)"/>
<mask id="path-303-inside-152_309_4264" fill="white">
<path d="M1359 0H1365V71H1359V0Z"/>
</mask>
<path d="M1365 71V72H1366V71H1365ZM1359 71H1358V72H1359V71ZM1364 0V71H1366V0H1364ZM1365 70H1359V72H1365V70ZM1360 71V0H1358V71H1360Z" fill="#EE0000" mask="url(#path-303-inside-152_309_4264)"/>
<mask id="path-305-inside-153_309_4264" fill="white">
<path d="M1368 0H1374V43H1368V0Z"/>
</mask>
<path d="M1374 43V44H1375V43H1374ZM1368 43H1367V44H1368V43ZM1373 0V43H1375V0H1373ZM1374 42H1368V44H1374V42ZM1369 43V0H1367V43H1369Z" fill="#EE0000" mask="url(#path-305-inside-153_309_4264)"/>
<mask id="path-307-inside-154_309_4264" fill="white">
<path d="M1377 0H1383V60H1377V0Z"/>
</mask>
<path d="M1383 60V61H1384V60H1383ZM1377 60H1376V61H1377V60ZM1382 0V60H1384V0H1382ZM1383 59H1377V61H1383V59ZM1378 60V0H1376V60H1378Z" fill="#EE0000" mask="url(#path-307-inside-154_309_4264)"/>
<mask id="path-309-inside-155_309_4264" fill="white">
<path d="M1386 0H1392V36H1386V0Z"/>
</mask>
<path d="M1392 36V37H1393V36H1392ZM1386 36H1385V37H1386V36ZM1391 0V36H1393V0H1391ZM1392 35H1386V37H1392V35ZM1387 36V0H1385V36H1387Z" fill="#EE0000" mask="url(#path-309-inside-155_309_4264)"/>
<mask id="path-311-inside-156_309_4264" fill="white">
<path d="M1395 0H1401V50H1395V0Z"/>
</mask>
<path d="M1401 50V51H1402V50H1401ZM1395 50H1394V51H1395V50ZM1400 0V50H1402V0H1400ZM1401 49H1395V51H1401V49ZM1396 50V0H1394V50H1396Z" fill="#EE0000" mask="url(#path-311-inside-156_309_4264)"/>
<mask id="path-313-inside-157_309_4264" fill="white">
<path d="M1404 0H1410V53H1404V0Z"/>
</mask>
<path d="M1410 53V54H1411V53H1410ZM1404 53H1403V54H1404V53ZM1409 0V53H1411V0H1409ZM1410 52H1404V54H1410V52ZM1405 53V0H1403V53H1405Z" fill="#EE0000" mask="url(#path-313-inside-157_309_4264)"/>
<mask id="path-315-inside-158_309_4264" fill="white">
<path d="M1413 0H1419V32H1413V0Z"/>
</mask>
<path d="M1419 32V33H1420V32H1419ZM1413 32H1412V33H1413V32ZM1418 0V32H1420V0H1418ZM1419 31H1413V33H1419V31ZM1414 32V0H1412V32H1414Z" fill="#EE0000" mask="url(#path-315-inside-158_309_4264)"/>
<mask id="path-317-inside-159_309_4264" fill="white">
<path d="M1422 0H1428V64H1422V0Z"/>
</mask>
<path d="M1428 64V65H1429V64H1428ZM1422 64H1421V65H1422V64ZM1427 0V64H1429V0H1427ZM1428 63H1422V65H1428V63ZM1423 64V0H1421V64H1423Z" fill="#EE0000" mask="url(#path-317-inside-159_309_4264)"/>
<mask id="path-319-inside-160_309_4264" fill="white">
<path d="M1431 0H1437V28H1431V0Z"/>
</mask>
<path d="M1437 28V29H1438V28H1437ZM1431 28H1430V29H1431V28ZM1436 0V28H1438V0H1436ZM1437 27H1431V29H1437V27ZM1432 28V0H1430V28H1432Z" fill="#EE0000" mask="url(#path-319-inside-160_309_4264)"/>
<mask id="path-321-inside-161_309_4264" fill="white">
<path d="M1440 0H1446V12H1440V0Z"/>
</mask>
<path d="M1446 12V13H1447V12H1446ZM1440 12H1439V13H1440V12ZM1445 0V12H1447V0H1445ZM1446 11H1440V13H1446V11ZM1441 12V0H1439V12H1441Z" fill="#EE0000" mask="url(#path-321-inside-161_309_4264)"/>
<mask id="path-323-inside-162_309_4264" fill="white">
<path d="M1449 0H1455V32H1449V0Z"/>
</mask>
<path d="M1455 32V33H1456V32H1455ZM1449 32H1448V33H1449V32ZM1454 0V32H1456V0H1454ZM1455 31H1449V33H1455V31ZM1450 32V0H1448V32H1450Z" fill="#EE0000" mask="url(#path-323-inside-162_309_4264)"/>
<mask id="path-325-inside-163_309_4264" fill="white">
<path d="M1458 0H1464V46H1458V0Z"/>
</mask>
<path d="M1464 46V47H1465V46H1464ZM1458 46H1457V47H1458V46ZM1463 0V46H1465V0H1463ZM1464 45H1458V47H1464V45ZM1459 46V0H1457V46H1459Z" fill="#EE0000" mask="url(#path-325-inside-163_309_4264)"/>
<mask id="path-327-inside-164_309_4264" fill="white">
<path d="M1467 0H1473V32H1467V0Z"/>
</mask>
<path d="M1473 32V33H1474V32H1473ZM1467 32H1466V33H1467V32ZM1472 0V32H1474V0H1472ZM1473 31H1467V33H1473V31ZM1468 32V0H1466V32H1468Z" fill="#EE0000" mask="url(#path-327-inside-164_309_4264)"/>
<mask id="path-329-inside-165_309_4264" fill="white">
<path d="M1476 0H1482V53H1476V0Z"/>
</mask>
<path d="M1482 53V54H1483V53H1482ZM1476 53H1475V54H1476V53ZM1481 0V53H1483V0H1481ZM1482 52H1476V54H1482V52ZM1477 53V0H1475V53H1477Z" fill="#EE0000" mask="url(#path-329-inside-165_309_4264)"/>
<mask id="path-331-inside-166_309_4264" fill="white">
<path d="M1485 0H1491V21H1485V0Z"/>
</mask>
<path d="M1491 21V22H1492V21H1491ZM1485 21H1484V22H1485V21ZM1490 0V21H1492V0H1490ZM1491 20H1485V22H1491V20ZM1486 21V0H1484V21H1486Z" fill="#EE0000" mask="url(#path-331-inside-166_309_4264)"/>
<mask id="path-333-inside-167_309_4264" fill="white">
<path d="M1494 0H1500V64H1494V0Z"/>
</mask>
<path d="M1500 64V65H1501V64H1500ZM1494 64H1493V65H1494V64ZM1499 0V64H1501V0H1499ZM1500 63H1494V65H1500V63ZM1495 64V0H1493V64H1495Z" fill="#EE0000" mask="url(#path-333-inside-167_309_4264)"/>
<mask id="path-335-inside-168_309_4264" fill="white">
<path d="M1503 0H1509V32H1503V0Z"/>
</mask>
<path d="M1509 32V33H1510V32H1509ZM1503 32H1502V33H1503V32ZM1508 0V32H1510V0H1508ZM1509 31H1503V33H1509V31ZM1504 32V0H1502V32H1504Z" fill="#EE0000" mask="url(#path-335-inside-168_309_4264)"/>
<mask id="path-337-inside-169_309_4264" fill="white">
<path d="M1512 0H1518V46H1512V0Z"/>
</mask>
<path d="M1518 46V47H1519V46H1518ZM1512 46H1511V47H1512V46ZM1517 0V46H1519V0H1517ZM1518 45H1512V47H1518V45ZM1513 46V0H1511V46H1513Z" fill="#EE0000" mask="url(#path-337-inside-169_309_4264)"/>
<mask id="path-339-inside-170_309_4264" fill="white">
<path d="M1521 0H1527V36H1521V0Z"/>
</mask>
<path d="M1527 36V37H1528V36H1527ZM1521 36H1520V37H1521V36ZM1526 0V36H1528V0H1526ZM1527 35H1521V37H1527V35ZM1522 36V0H1520V36H1522Z" fill="#EE0000" mask="url(#path-339-inside-170_309_4264)"/>
<mask id="path-341-inside-171_309_4264" fill="white">
<path d="M1797 0H1791V32H1797V0Z"/>
</mask>
<path d="M1791 32V33H1790V32H1791ZM1797 32H1798V33H1797V32ZM1792 0V32H1790V0H1792ZM1791 31H1797V33H1791V31ZM1796 32V0H1798V32H1796Z" fill="#EE0000" mask="url(#path-341-inside-171_309_4264)"/>
<mask id="path-343-inside-172_309_4264" fill="white">
<path d="M1788 0H1782V45H1788V0Z"/>
</mask>
<path d="M1782 45V46H1781V45H1782ZM1788 45H1789V46H1788V45ZM1783 0V45H1781V0H1783ZM1782 44H1788V46H1782V44ZM1787 45V0H1789V45H1787Z" fill="#EE0000" mask="url(#path-343-inside-172_309_4264)"/>
<mask id="path-345-inside-173_309_4264" fill="white">
<path d="M1779 0H1773V22H1779V0Z"/>
</mask>
<path d="M1773 22V23H1772V22H1773ZM1779 22H1780V23H1779V22ZM1774 0V22H1772V0H1774ZM1773 21H1779V23H1773V21ZM1778 22V0H1780V22H1778Z" fill="#EE0000" mask="url(#path-345-inside-173_309_4264)"/>
<mask id="path-347-inside-174_309_4264" fill="white">
<path d="M1770 0H1764V32H1770V0Z"/>
</mask>
<path d="M1764 32V33H1763V32H1764ZM1770 32H1771V33H1770V32ZM1765 0V32H1763V0H1765ZM1764 31H1770V33H1764V31ZM1769 32V0H1771V32H1769Z" fill="#EE0000" mask="url(#path-347-inside-174_309_4264)"/>
<mask id="path-349-inside-175_309_4264" fill="white">
<path d="M1761 0H1755V24H1761V0Z"/>
</mask>
<path d="M1755 24V25H1754V24H1755ZM1761 24H1762V25H1761V24ZM1756 0V24H1754V0H1756ZM1755 23H1761V25H1755V23ZM1760 24V0H1762V24H1760Z" fill="#EE0000" mask="url(#path-349-inside-175_309_4264)"/>
<mask id="path-351-inside-176_309_4264" fill="white">
<path d="M1752 0H1746V30H1752V0Z"/>
</mask>
<path d="M1746 30V31H1745V30H1746ZM1752 30H1753V31H1752V30ZM1747 0V30H1745V0H1747ZM1746 29H1752V31H1746V29ZM1751 30V0H1753V30H1751Z" fill="#EE0000" mask="url(#path-351-inside-176_309_4264)"/>
<mask id="path-353-inside-177_309_4264" fill="white">
<path d="M1743 0H1737V18H1743V0Z"/>
</mask>
<path d="M1737 18V19H1736V18H1737ZM1743 18H1744V19H1743V18ZM1738 0V18H1736V0H1738ZM1737 17H1743V19H1737V17ZM1742 18V0H1744V18H1742Z" fill="#EE0000" mask="url(#path-353-inside-177_309_4264)"/>
<mask id="path-355-inside-178_309_4264" fill="white">
<path d="M1734 0H1728V16H1734V0Z"/>
</mask>
<path d="M1728 16V17H1727V16H1728ZM1734 16H1735V17H1734V16ZM1729 0V16H1727V0H1729ZM1728 15H1734V17H1728V15ZM1733 16V0H1735V16H1733Z" fill="#EE0000" mask="url(#path-355-inside-178_309_4264)"/>
<mask id="path-357-inside-179_309_4264" fill="white">
<path d="M1725 0H1719V26H1725V0Z"/>
</mask>
<path d="M1719 26V27H1718V26H1719ZM1725 26H1726V27H1725V26ZM1720 0V26H1718V0H1720ZM1719 25H1725V27H1719V25ZM1724 26V0H1726V26H1724Z" fill="#EE0000" mask="url(#path-357-inside-179_309_4264)"/>
<mask id="path-359-inside-180_309_4264" fill="white">
<path d="M1716 0H1710V28H1716V0Z"/>
</mask>
<path d="M1710 28V29H1709V28H1710ZM1716 28H1717V29H1716V28ZM1711 0V28H1709V0H1711ZM1710 27H1716V29H1710V27ZM1715 28V0H1717V28H1715Z" fill="#EE0000" mask="url(#path-359-inside-180_309_4264)"/>
<mask id="path-361-inside-181_309_4264" fill="white">
<path d="M1707 0H1701V34H1707V0Z"/>
</mask>
<path d="M1701 34V35H1700V34H1701ZM1707 34H1708V35H1707V34ZM1702 0V34H1700V0H1702ZM1701 33H1707V35H1701V33ZM1706 34V0H1708V34H1706Z" fill="#EE0000" mask="url(#path-361-inside-181_309_4264)"/>
<mask id="path-363-inside-182_309_4264" fill="white">
<path d="M1698 0H1692V40H1698V0Z"/>
</mask>
<path d="M1692 40V41H1691V40H1692ZM1698 40H1699V41H1698V40ZM1693 0V40H1691V0H1693ZM1692 39H1698V41H1692V39ZM1697 40V0H1699V40H1697Z" fill="#EE0000" mask="url(#path-363-inside-182_309_4264)"/>
<mask id="path-365-inside-183_309_4264" fill="white">
<path d="M1689 0H1683V24H1689V0Z"/>
</mask>
<path d="M1683 24V25H1682V24H1683ZM1689 24H1690V25H1689V24ZM1684 0V24H1682V0H1684ZM1683 23H1689V25H1683V23ZM1688 24V0H1690V24H1688Z" fill="#EE0000" mask="url(#path-365-inside-183_309_4264)"/>
<mask id="path-367-inside-184_309_4264" fill="white">
<path d="M1680 0H1674V34H1680V0Z"/>
</mask>
<path d="M1674 34V35H1673V34H1674ZM1680 34H1681V35H1680V34ZM1675 0V34H1673V0H1675ZM1674 33H1680V35H1674V33ZM1679 34V0H1681V34H1679Z" fill="#EE0000" mask="url(#path-367-inside-184_309_4264)"/>
<mask id="path-369-inside-185_309_4264" fill="white">
<path d="M1671 0H1665V20H1671V0Z"/>
</mask>
<path d="M1665 20V21H1664V20H1665ZM1671 20H1672V21H1671V20ZM1666 0V20H1664V0H1666ZM1665 19H1671V21H1665V19ZM1670 20V0H1672V20H1670Z" fill="#EE0000" mask="url(#path-369-inside-185_309_4264)"/>
<mask id="path-371-inside-186_309_4264" fill="white">
<path d="M1662 0H1656V28H1662V0Z"/>
</mask>
<path d="M1656 28V29H1655V28H1656ZM1662 28H1663V29H1662V28ZM1657 0V28H1655V0H1657ZM1656 27H1662V29H1656V27ZM1661 28V0H1663V28H1661Z" fill="#EE0000" mask="url(#path-371-inside-186_309_4264)"/>
<mask id="path-373-inside-187_309_4264" fill="white">
<path d="M1653 0H1647V30H1653V0Z"/>
</mask>
<path d="M1647 30V31H1646V30H1647ZM1653 30H1654V31H1653V30ZM1648 0V30H1646V0H1648ZM1647 29H1653V31H1647V29ZM1652 30V0H1654V30H1652Z" fill="#EE0000" mask="url(#path-373-inside-187_309_4264)"/>
<mask id="path-375-inside-188_309_4264" fill="white">
<path d="M1644 0H1638V18H1644V0Z"/>
</mask>
<path d="M1638 18V19H1637V18H1638ZM1644 18H1645V19H1644V18ZM1639 0V18H1637V0H1639ZM1638 17H1644V19H1638V17ZM1643 18V0H1645V18H1643Z" fill="#EE0000" mask="url(#path-375-inside-188_309_4264)"/>
<mask id="path-377-inside-189_309_4264" fill="white">
<path d="M1635 0H1629V36H1635V0Z"/>
</mask>
<path d="M1629 36V37H1628V36H1629ZM1635 36H1636V37H1635V36ZM1630 0V36H1628V0H1630ZM1629 35H1635V37H1629V35ZM1634 36V0H1636V36H1634Z" fill="#EE0000" mask="url(#path-377-inside-189_309_4264)"/>
<mask id="path-379-inside-190_309_4264" fill="white">
<path d="M1626 0H1620V16H1626V0Z"/>
</mask>
<path d="M1620 16V17H1619V16H1620ZM1626 16H1627V17H1626V16ZM1621 0V16H1619V0H1621ZM1620 15H1626V17H1620V15ZM1625 16V0H1627V16H1625Z" fill="#EE0000" mask="url(#path-379-inside-190_309_4264)"/>
<mask id="path-381-inside-191_309_4264" fill="white">
<path d="M1617 0H1611V7H1617V0Z"/>
</mask>
<path d="M1611 7V8H1610V7H1611ZM1617 7H1618V8H1617V7ZM1612 0V7H1610V0H1612ZM1611 6H1617V8H1611V6ZM1616 7V0H1618V7H1616Z" fill="#EE0000" mask="url(#path-381-inside-191_309_4264)"/>
<mask id="path-383-inside-192_309_4264" fill="white">
<path d="M1608 0H1602V18H1608V0Z"/>
</mask>
<path d="M1602 18V19H1601V18H1602ZM1608 18H1609V19H1608V18ZM1603 0V18H1601V0H1603ZM1602 17H1608V19H1602V17ZM1607 18V0H1609V18H1607Z" fill="#EE0000" mask="url(#path-383-inside-192_309_4264)"/>
<mask id="path-385-inside-193_309_4264" fill="white">
<path d="M1599 0H1593V26H1599V0Z"/>
</mask>
<path d="M1593 26V27H1592V26H1593ZM1599 26H1600V27H1599V26ZM1594 0V26H1592V0H1594ZM1593 25H1599V27H1593V25ZM1598 26V0H1600V26H1598Z" fill="#EE0000" mask="url(#path-385-inside-193_309_4264)"/>
<mask id="path-387-inside-194_309_4264" fill="white">
<path d="M1590 0H1584V18H1590V0Z"/>
</mask>
<path d="M1584 18V19H1583V18H1584ZM1590 18H1591V19H1590V18ZM1585 0V18H1583V0H1585ZM1584 17H1590V19H1584V17ZM1589 18V0H1591V18H1589Z" fill="#EE0000" mask="url(#path-387-inside-194_309_4264)"/>
<mask id="path-389-inside-195_309_4264" fill="white">
<path d="M1581 0H1575V30H1581V0Z"/>
</mask>
<path d="M1575 30V31H1574V30H1575ZM1581 30H1582V31H1581V30ZM1576 0V30H1574V0H1576ZM1575 29H1581V31H1575V29ZM1580 30V0H1582V30H1580Z" fill="#EE0000" mask="url(#path-389-inside-195_309_4264)"/>
<mask id="path-391-inside-196_309_4264" fill="white">
<path d="M1572 0H1566V12H1572V0Z"/>
</mask>
<path d="M1566 12V13H1565V12H1566ZM1572 12H1573V13H1572V12ZM1567 0V12H1565V0H1567ZM1566 11H1572V13H1566V11ZM1571 12V0H1573V12H1571Z" fill="#EE0000" mask="url(#path-391-inside-196_309_4264)"/>
<mask id="path-393-inside-197_309_4264" fill="white">
<path d="M1563 0H1557V36H1563V0Z"/>
</mask>
<path d="M1557 36V37H1556V36H1557ZM1563 36H1564V37H1563V36ZM1558 0V36H1556V0H1558ZM1557 35H1563V37H1557V35ZM1562 36V0H1564V36H1562Z" fill="#EE0000" mask="url(#path-393-inside-197_309_4264)"/>
<mask id="path-395-inside-198_309_4264" fill="white">
<path d="M1554 0H1548V18H1554V0Z"/>
</mask>
<path d="M1548 18V19H1547V18H1548ZM1554 18H1555V19H1554V18ZM1549 0V18H1547V0H1549ZM1548 17H1554V19H1548V17ZM1553 18V0H1555V18H1553Z" fill="#EE0000" mask="url(#path-395-inside-198_309_4264)"/>
<mask id="path-397-inside-199_309_4264" fill="white">
<path d="M1545 0H1539V26H1545V0Z"/>
</mask>
<path d="M1539 26V27H1538V26H1539ZM1545 26H1546V27H1545V26ZM1540 0V26H1538V0H1540ZM1539 25H1545V27H1539V25ZM1544 26V0H1546V26H1544Z" fill="#EE0000" mask="url(#path-397-inside-199_309_4264)"/>
<mask id="path-399-inside-200_309_4264" fill="white">
<path d="M1536 0H1530V20H1536V0Z"/>
</mask>
<path d="M1530 20V21H1529V20H1530ZM1536 20H1537V21H1536V20ZM1531 0V20H1529V0H1531ZM1530 19H1536V21H1530V19ZM1535 20V0H1537V20H1535Z" fill="#EE0000" mask="url(#path-399-inside-200_309_4264)"/>
<mask id="path-401-inside-201_309_4264" fill="white">
<path d="M1914 0H1908V40H1914V0Z"/>
</mask>
<path d="M1908 40V41H1907V40H1908ZM1914 40H1915V41H1914V40ZM1909 0V40H1907V0H1909ZM1908 39H1914V41H1908V39ZM1913 40V0H1915V40H1913Z" fill="#EE0000" mask="url(#path-401-inside-201_309_4264)"/>
<mask id="path-403-inside-202_309_4264" fill="white">
<path d="M1905 0H1899V80H1905V0Z"/>
</mask>
<path d="M1899 80V81H1898V80H1899ZM1905 80H1906V81H1905V80ZM1900 0V80H1898V0H1900ZM1899 79H1905V81H1899V79ZM1904 80V0H1906V80H1904Z" fill="#EE0000" mask="url(#path-403-inside-202_309_4264)"/>
<mask id="path-405-inside-203_309_4264" fill="white">
<path d="M1896 0H1890V36H1896V0Z"/>
</mask>
<path d="M1890 36V37H1889V36H1890ZM1896 36H1897V37H1896V36ZM1891 0V36H1889V0H1891ZM1890 35H1896V37H1890V35ZM1895 36V0H1897V36H1895Z" fill="#EE0000" mask="url(#path-405-inside-203_309_4264)"/>
<mask id="path-407-inside-204_309_4264" fill="white">
<path d="M1887 0H1881V16H1887V0Z"/>
</mask>
<path d="M1881 16V17H1880V16H1881ZM1887 16H1888V17H1887V16ZM1882 0V16H1880V0H1882ZM1881 15H1887V17H1881V15ZM1886 16V0H1888V16H1886Z" fill="#EE0000" mask="url(#path-407-inside-204_309_4264)"/>
<mask id="path-409-inside-205_309_4264" fill="white">
<path d="M1878 0H1872V40H1878V0Z"/>
</mask>
<path d="M1872 40V41H1871V40H1872ZM1878 40H1879V41H1878V40ZM1873 0V40H1871V0H1873ZM1872 39H1878V41H1872V39ZM1877 40V0H1879V40H1877Z" fill="#EE0000" mask="url(#path-409-inside-205_309_4264)"/>
<mask id="path-411-inside-206_309_4264" fill="white">
<path d="M1869 0H1863V58H1869V0Z"/>
</mask>
<path d="M1863 58V59H1862V58H1863ZM1869 58H1870V59H1869V58ZM1864 0V58H1862V0H1864ZM1863 57H1869V59H1863V57ZM1868 58V0H1870V58H1868Z" fill="#EE0000" mask="url(#path-411-inside-206_309_4264)"/>
<mask id="path-413-inside-207_309_4264" fill="white">
<path d="M1860 0H1854V40H1860V0Z"/>
</mask>
<path d="M1854 40V41H1853V40H1854ZM1860 40H1861V41H1860V40ZM1855 0V40H1853V0H1855ZM1854 39H1860V41H1854V39ZM1859 40V0H1861V40H1859Z" fill="#EE0000" mask="url(#path-413-inside-207_309_4264)"/>
<mask id="path-415-inside-208_309_4264" fill="white">
<path d="M1851 0H1845V67H1851V0Z"/>
</mask>
<path d="M1845 67V68H1844V67H1845ZM1851 67H1852V68H1851V67ZM1846 0V67H1844V0H1846ZM1845 66H1851V68H1845V66ZM1850 67V0H1852V67H1850Z" fill="#EE0000" mask="url(#path-415-inside-208_309_4264)"/>
<mask id="path-417-inside-209_309_4264" fill="white">
<path d="M1842 0H1836V27H1842V0Z"/>
</mask>
<path d="M1836 27V28H1835V27H1836ZM1842 27H1843V28H1842V27ZM1837 0V27H1835V0H1837ZM1836 26H1842V28H1836V26ZM1841 27V0H1843V27H1841Z" fill="#EE0000" mask="url(#path-417-inside-209_309_4264)"/>
<mask id="path-419-inside-210_309_4264" fill="white">
<path d="M1833 0H1827V80H1833V0Z"/>
</mask>
<path d="M1827 80V81H1826V80H1827ZM1833 80H1834V81H1833V80ZM1828 0V80H1826V0H1828ZM1827 79H1833V81H1827V79ZM1832 80V0H1834V80H1832Z" fill="#EE0000" mask="url(#path-419-inside-210_309_4264)"/>
<mask id="path-421-inside-211_309_4264" fill="white">
<path d="M1824 0H1818V40H1824V0Z"/>
</mask>
<path d="M1818 40V41H1817V40H1818ZM1824 40H1825V41H1824V40ZM1819 0V40H1817V0H1819ZM1818 39H1824V41H1818V39ZM1823 40V0H1825V40H1823Z" fill="#EE0000" mask="url(#path-421-inside-211_309_4264)"/>
<mask id="path-423-inside-212_309_4264" fill="white">
<path d="M1815 0H1809V58H1815V0Z"/>
</mask>
<path d="M1809 58V59H1808V58H1809ZM1815 58H1816V59H1815V58ZM1810 0V58H1808V0H1810ZM1809 57H1815V59H1809V57ZM1814 58V0H1816V58H1814Z" fill="#EE0000" mask="url(#path-423-inside-212_309_4264)"/>
<mask id="path-425-inside-213_309_4264" fill="white">
<path d="M1806 0H1800V44H1806V0Z"/>
</mask>
<path d="M1800 44V45H1799V44H1800ZM1806 44H1807V45H1806V44ZM1801 0V44H1799V0H1801ZM1800 43H1806V45H1800V43ZM1805 44V0H1807V44H1805Z" fill="#EE0000" mask="url(#path-425-inside-213_309_4264)"/>
</g>
</svg>
