<svg width="24" height="24" viewBox="0 0 24 24" fill="none" xmlns="http://www.w3.org/2000/svg">
<path fill-rule="evenodd" clip-rule="evenodd" d="M2 3C2 2.44772 2.44772 2 3 2H4.22C4.66586 2.00001 5.09895 2.149 5.45044 2.42331C5.80193 2.69762 6.05168 3.08151 6.16003 3.514L6.78095 6H19.79C20.2091 6.00002 20.6236 6.08786 21.0067 6.25786C21.3899 6.42786 21.7331 6.67625 22.0143 6.98702C22.2955 7.29779 22.5085 7.66404 22.6396 8.06217C22.7706 8.46029 22.8167 8.88145 22.775 9.2985L22.175 15.2985C22.101 16.0388 21.7546 16.7251 21.203 17.2243C20.6514 17.7235 19.934 18 19.19 18H9.6404C9.64026 18 9.64053 18 9.6404 18C8.94674 18.0002 8.27406 17.76 7.73756 17.3203C7.20098 16.8805 6.83341 16.2684 6.69741 15.5881C6.69741 15.588 6.69742 15.5881 6.69741 15.5881L5.02406 7.21932L4.21997 4H3C2.44772 4 2 3.55228 2 3ZM7.21975 8L8.65859 15.1959C8.70392 15.4227 8.82646 15.6268 9.00533 15.7734C9.18419 15.92 9.40834 16.0001 9.6396 16H19.19C19.19 16 19.1899 16 19.19 16C19.4379 16 19.6771 15.9078 19.8609 15.7414C20.0448 15.575 20.1603 15.3463 20.185 15.0995L20.785 9.0995C20.7989 8.96048 20.7835 8.8201 20.7398 8.68739C20.6961 8.55468 20.6251 8.4326 20.5314 8.32901C20.4376 8.22542 20.3232 8.14262 20.1955 8.08595C20.0678 8.02929 19.9297 8.00001 19.79 8C19.79 8 19.79 8 19.79 8H7.21975ZM8 21C8 20.4477 8.44772 20 9 20H11C11.5523 20 12 20.4477 12 21C12 21.5523 11.5523 22 11 22H9C8.44772 22 8 21.5523 8 21ZM16 21C16 20.4477 16.4477 20 17 20H19C19.5523 20 20 20.4477 20 21C20 21.5523 19.5523 22 19 22H17C16.4477 22 16 21.5523 16 21Z" fill="white"/>
</svg>
