<svg width="216" height="40" viewBox="0 0 216 40" fill="none" xmlns="http://www.w3.org/2000/svg">
<mask id="mask0_309_4756" style="mask-type:alpha" maskUnits="userSpaceOnUse" x="0" y="0" width="81" height="40">
<rect x="0.222168" width="80" height="40" fill="#D9D9D9"/>
</mask>
<g mask="url(#mask0_309_4756)">
<rect width="2.56615" height="61.5877" transform="matrix(0.734803 -0.67828 0.734803 0.67828 0.222168 -0.105225)" fill="#C51414"/>
<rect width="2.56615" height="61.5877" transform="matrix(0.734803 -0.67828 0.734803 0.67828 8.45908 -0.105225)" fill="#C51414"/>
<rect width="2.56615" height="61.5877" transform="matrix(0.734803 -0.67828 0.734803 0.67828 16.696 -0.105225)" fill="#C51414"/>
<rect width="2.56615" height="61.5877" transform="matrix(0.734803 -0.67828 0.734803 0.67828 24.9329 -0.105225)" fill="#C51414"/>
<rect width="2.56615" height="61.5877" transform="matrix(0.734803 -0.67828 0.734803 0.67828 33.1697 -0.105225)" fill="#C51414"/>
</g>
<path fill-rule="evenodd" clip-rule="evenodd" d="M94.4444 11.7417L106.667 15.1111L100.739 9.66033C103.416 8.11264 106.522 7.4589 109.604 7.80157C112.836 8.16099 115.853 9.59581 118.172 11.8758C120.491 14.1557 121.977 17.1486 122.391 20.3742C122.806 23.5998 122.124 26.8709 120.456 29.6628C118.789 32.4547 116.231 34.6054 113.195 35.7698C110.159 36.9341 106.819 37.0447 103.712 36.0836C100.605 35.1226 97.9115 33.1457 96.0628 30.4702C94.2142 27.7947 93.3179 24.5757 93.5179 21.3299L90.2558 21.1289C90.0108 25.1059 91.1089 29.0499 93.374 32.3281C95.639 35.6063 98.9397 38.0285 102.746 39.206C106.553 40.3835 110.645 40.2481 114.365 38.8214C118.086 37.3948 121.219 34.7596 123.262 31.3389C125.306 27.9181 126.14 23.9101 125.633 19.9579C125.126 16.0058 123.305 12.3387 120.464 9.54521C117.622 6.75169 113.925 4.99368 109.965 4.55329C106.362 4.15266 102.732 4.86363 99.5571 6.57712L99.1111 0L94.4444 11.7417ZM105.523 29.72C106.429 30.08 107.503 30.26 108.743 30.26C109.663 30.26 110.596 30.1467 111.543 29.92C112.503 29.68 113.403 29.34 114.243 28.9L113.423 26.46C112.809 26.8067 112.076 27.0933 111.223 27.32C110.369 27.5333 109.516 27.64 108.663 27.64C108.023 27.64 107.503 27.58 107.103 27.46C106.716 27.3267 106.429 27.1467 106.243 26.92C106.056 26.6933 105.963 26.4333 105.963 26.14C105.963 25.8467 106.076 25.6133 106.303 25.44C106.435 25.3309 106.593 25.2309 106.775 25.14H115.283V23.48H101.543V25.14H102.849C102.847 25.1466 102.845 25.1533 102.843 25.16C102.776 25.3733 102.743 25.62 102.743 25.9C102.743 26.78 102.983 27.5467 103.463 28.2C103.943 28.8533 104.629 29.36 105.523 29.72ZM101.543 20.72V22.38H115.283V20.72H114.033C114.066 20.5366 114.083 20.3366 114.083 20.12C114.083 19.24 113.836 18.4733 113.343 17.82C112.863 17.1533 112.176 16.64 111.283 16.28C110.403 15.92 109.349 15.74 108.123 15.74C107.363 15.74 106.583 15.82 105.783 15.98C104.996 16.14 104.223 16.3867 103.463 16.72L104.203 19.18C104.883 18.9 105.563 18.6933 106.243 18.56C106.923 18.4267 107.583 18.36 108.223 18.36C108.863 18.36 109.376 18.4333 109.763 18.58C110.149 18.7267 110.429 18.92 110.603 19.16C110.789 19.3867 110.883 19.6533 110.883 19.96C110.883 20.2533 110.736 20.4933 110.443 20.68C110.42 20.6934 110.397 20.7067 110.373 20.72H101.543Z" fill="white"/>
<mask id="mask1_309_4756" style="mask-type:alpha" maskUnits="userSpaceOnUse" x="135" y="0" width="81" height="40">
<rect width="80" height="40" transform="matrix(1 0 0 -1 135.778 40)" fill="#D9D9D9"/>
</mask>
<g mask="url(#mask1_309_4756)">
<rect width="2.56615" height="61.5877" transform="matrix(0.734803 0.67828 0.734803 -0.67828 135.778 40.1052)" fill="#C51414"/>
<rect width="2.56615" height="61.5877" transform="matrix(0.734803 0.67828 0.734803 -0.67828 144.015 40.1052)" fill="#C51414"/>
<rect width="2.56615" height="61.5877" transform="matrix(0.734803 0.67828 0.734803 -0.67828 152.252 40.1052)" fill="#C51414"/>
<rect width="2.56615" height="61.5877" transform="matrix(0.734803 0.67828 0.734803 -0.67828 160.489 40.1052)" fill="#C51414"/>
<rect width="2.56615" height="61.5877" transform="matrix(0.734803 0.67828 0.734803 -0.67828 168.725 40.1052)" fill="#C51414"/>
</g>
</svg>
