<svg width="24" height="24" viewBox="0 0 24 24" fill="none" xmlns="http://www.w3.org/2000/svg">
<path d="M11.997 2.76036C12.2537 2.94374 12.4737 2.9804 13.1339 3.01706C15.0776 3.12708 16.2878 3.56717 17.6448 4.55738C19.3318 5.76762 20.3953 7.49132 20.7621 9.61841C20.8721 10.1685 20.9087 10.6453 20.9454 11.3421C20.9821 11.8556 20.9821 12.0389 21.0921 12.2223C21.2755 12.5157 21.5689 12.699 21.8989 12.7357C21.9356 12.7357 21.9723 12.7357 22.009 12.7357C22.3024 12.7357 22.5957 12.5891 22.7425 12.3323C22.9992 12.0389 22.9992 11.7822 22.9625 11.1954C22.8891 9.3984 22.5224 7.74807 21.7889 6.35444C21.2755 5.36423 20.7987 4.7041 19.9185 3.86058C19.0017 2.9804 18.3049 2.46695 17.2046 1.95354C16.0678 1.40343 15.2609 1.22004 14.0507 1.07336C13.8307 1.03666 13.3906 1 13.0605 1C12.4738 1 12.217 1 11.9603 1.2567C11.7403 1.44009 11.6302 1.73345 11.6302 2.02686C11.6302 2.32027 11.7769 2.57697 11.997 2.76036ZM12.4371 1.80682C12.4737 1.77016 12.5104 1.73345 12.7671 1.73345C12.8405 1.73345 12.9138 1.73345 13.0238 1.73345C13.3172 1.73345 13.7573 1.77011 13.9774 1.80682C15.1143 1.9535 15.8478 2.10022 16.9113 2.61363C17.9382 3.12708 18.5617 3.56717 19.4418 4.41065C20.2487 5.21747 20.6887 5.80428 21.1655 6.72112C21.8257 8.04139 22.1924 9.54504 22.2658 11.2687C22.2658 11.8188 22.2658 11.8555 22.1924 11.8922C22.1557 11.9655 22.0457 11.9655 21.9724 11.9655C21.899 11.9655 21.789 11.9289 21.7523 11.8555C21.7156 11.8189 21.7156 11.7455 21.6789 11.3054C21.6423 10.5719 21.6056 10.0585 21.4956 9.47168C21.0555 7.12455 19.9186 5.25417 18.0849 3.9339C16.6179 2.87034 15.2609 2.39359 13.1705 2.28357C12.547 2.24691 12.5104 2.2102 12.437 2.17354C12.4004 2.13688 12.3637 2.06352 12.3637 1.99016C12.3637 1.9168 12.4004 1.84352 12.4371 1.80682Z" fill="white"/>
<path d="M18.0117 10.6402C18.0117 11.1536 18.0484 11.6304 18.5618 11.8871C18.7085 11.9604 18.8919 11.9971 19.0753 11.9971C19.222 11.9971 19.4054 11.9604 19.5154 11.8871C19.6988 11.8137 19.9188 11.557 19.9921 11.3736C20.1021 11.1169 20.0655 10.1634 20.0288 9.90666C19.8821 8.73308 19.4787 7.63285 18.8552 6.71601C17.6816 5.02902 15.958 4.03882 13.7208 3.70875C12.9507 3.59873 12.4005 3.56207 12.0705 4.07548C11.8138 4.4422 11.8504 4.95565 12.1438 5.28572C12.4005 5.57913 12.7306 5.61579 13.0607 5.65245C13.9409 5.72581 14.9311 6.01918 15.5912 6.38595C16.3613 6.82604 16.9848 7.48617 17.4249 8.25633C17.7917 8.95312 18.0117 9.79664 18.0117 10.6402ZM15.9946 5.76247C15.2245 5.32238 14.1242 5.02897 13.0607 4.95566C12.7673 4.95566 12.6939 4.88229 12.6572 4.84563C12.5839 4.73561 12.5839 4.62559 12.6572 4.51557C12.7306 4.4422 12.7673 4.36888 13.6108 4.47891C15.6646 4.77231 17.2049 5.65249 18.2317 7.1561C18.8185 7.96292 19.1853 8.95312 19.2953 10.0167C19.3687 10.3834 19.3319 11.0069 19.3319 11.1169C19.2953 11.1536 19.2219 11.2269 19.1853 11.2636C19.1486 11.2636 18.9652 11.2636 18.9286 11.2269C18.8552 11.1903 18.7819 11.1536 18.7819 10.6402C18.7819 9.68662 18.5252 8.65976 18.0851 7.8896C17.6083 7.00942 16.8748 6.27592 15.9946 5.76247Z" fill="white"/>
<path d="M15.9958 7.52536C15.5191 7.04861 14.9323 6.7552 14.1621 6.60852C13.9787 6.57186 13.6854 6.53516 13.502 6.53516C13.2086 6.53516 13.0619 6.53516 12.8419 6.64518C12.5851 6.79186 12.4018 7.04861 12.3284 7.34197C12.255 7.63538 12.3651 7.96545 12.5484 8.18549C12.8052 8.4422 13.0252 8.4789 13.502 8.55222C14.3088 8.62558 14.7489 8.91895 15.0056 9.4324C15.1523 9.6891 15.2257 9.98251 15.2623 10.4226C15.299 10.7893 15.3724 11.0461 15.6658 11.2661C15.8492 11.3761 16.0692 11.4495 16.2892 11.4495C16.546 11.4495 16.766 11.3761 16.876 11.2661C17.2427 10.9361 17.2795 10.496 17.1694 9.87249C16.986 8.84563 16.656 8.11217 15.9958 7.52536ZM16.4359 10.6793C16.3626 10.7527 16.1792 10.7527 16.0692 10.6793C16.0325 10.6427 15.9958 10.6427 15.9592 10.3493C15.9225 9.87253 15.8492 9.50576 15.6658 9.13903C15.299 8.36888 14.6389 7.92879 13.612 7.81877C13.2086 7.7454 13.1719 7.7454 13.1353 7.67208C13.0986 7.59872 13.0986 7.5254 13.0986 7.45204C13.1353 7.37868 13.172 7.30536 13.2453 7.26865C13.2819 7.23199 13.2819 7.23199 13.3553 7.23199C13.392 7.23199 13.4653 7.23199 13.502 7.23199C13.6854 7.26865 13.9421 7.26865 14.0521 7.30536C14.6756 7.45204 15.1523 7.67208 15.5558 8.03885C16.0692 8.5156 16.3626 9.10242 16.4726 9.94589C16.5827 10.5327 16.5093 10.606 16.4359 10.6793Z" fill="white"/>
<path d="M22.5966 17.6848C22.3399 17.3914 20.7628 16.1445 20.0661 15.6677C19.5159 15.301 18.6358 14.7875 18.2323 14.5675C17.6456 14.2741 17.0221 14.2374 16.4353 14.4208C16.3253 14.4575 16.2153 14.4942 16.1419 14.5308C15.8485 14.6775 15.6285 14.9343 15.1884 15.4477C14.7483 15.9978 14.6383 16.1078 14.6383 16.1078C14.6016 16.1445 14.5282 16.1812 14.4549 16.2178H14.4182C14.0881 16.4012 13.538 16.2545 12.6212 15.8144C11.851 15.4477 11.1542 14.9709 10.3841 14.2741C9.72395 13.6873 9.06382 12.9172 8.69709 12.3303C8.18364 11.4868 7.85357 10.5333 7.85357 10.0932C7.85357 9.90984 7.92693 9.65314 8.00025 9.54312L8.03691 9.50646C8.03691 9.50646 8.07357 9.4698 8.11028 9.43309C8.25696 9.32307 8.44034 9.17639 8.62373 9.02967C9.46725 8.36953 9.72395 8.11283 9.87063 7.59937C10.0173 7.12263 9.90729 6.57251 9.50391 5.80236C8.91714 4.66547 7.01005 2.24498 6.2399 1.73153C6.12987 1.62151 5.90983 1.51148 5.76315 1.47482C5.43308 1.32814 4.99299 1.29144 4.69958 1.3648C4.29615 1.43816 3.85606 1.69487 2.90256 2.42837C2.35245 2.79509 1.54564 3.56525 1.32559 3.93202C0.812139 4.8122 0.958864 5.5457 1.39895 6.82926C1.83904 8.03951 2.42581 9.24975 3.12265 10.46L3.15931 10.5334C3.30599 10.7534 3.45272 11.0101 3.5994 11.2302L3.63606 11.3035C3.78274 11.5236 3.92947 11.7803 4.07615 12.0003L4.33285 12.367C4.44288 12.5137 4.51624 12.6237 4.62626 12.7705C4.80965 13.0272 5.02969 13.2839 5.21303 13.5406C7.34012 16.2912 9.79731 18.5283 12.6946 20.3254L12.8046 20.3987C13.208 20.6554 13.6481 20.9122 14.1248 21.1689L14.3082 21.2789C14.785 21.5356 15.2251 21.7556 15.7019 21.9757L15.8485 22.049C16.3987 22.3058 16.8754 22.5258 17.3522 22.7092C17.939 22.9292 18.1957 23.0026 18.5991 23.0026C18.6725 23.0026 18.7458 23.0026 18.8191 23.0026C19.0759 23.0026 19.3326 22.9659 19.5526 22.8926C19.8827 22.7825 20.1761 22.6359 20.5428 22.3791C20.5795 22.3425 20.6529 22.2691 20.7262 22.2324C20.7996 22.1591 20.9096 22.0858 20.9829 22.0124C21.3864 21.6823 21.8631 21.1689 22.2298 20.6555C22.4132 20.3988 22.6699 19.9953 22.8166 19.6653C22.9633 19.3719 23 19.0418 23 18.7484C23 18.3449 22.8533 17.9781 22.5966 17.6848ZM22.1565 19.4084C22.0831 19.6285 21.8998 19.9219 21.643 20.2519C21.313 20.7287 20.8729 21.1688 20.5061 21.4989C20.4328 21.5722 20.3595 21.6455 20.2861 21.6822C20.2127 21.7189 20.1761 21.7556 20.1027 21.7923C19.8093 22.0123 19.5526 22.1223 19.3326 22.1957C19.1492 22.2323 18.9658 22.2691 18.7824 22.2691C18.379 22.2691 18.2323 22.2691 17.6456 22.049C17.2055 21.829 16.7287 21.6456 16.1786 21.3889L16.0319 21.3155C15.5918 21.0955 15.1151 20.8754 14.675 20.6187L14.4916 20.5087C14.0515 20.2886 13.6114 20.0319 13.208 19.7752L13.098 19.7018C10.2374 17.9415 7.85357 15.7777 5.79985 13.1005C5.61646 12.8438 5.43312 12.587 5.24974 12.3303C5.13971 12.1837 5.02969 12.0736 4.95633 11.9269L4.73628 11.5968C4.5529 11.3768 4.40622 11.1567 4.25954 10.9L4.22288 10.8634C4.07619 10.6433 3.96617 10.3866 3.81945 10.1666L3.78279 10.0932C3.08599 8.95635 2.53588 7.7461 2.09579 6.57251C1.58234 5.25224 1.6557 4.81216 1.94911 4.2987C2.09579 4.07866 2.79263 3.38186 3.34274 3.01509C4.14951 2.39166 4.5896 2.13492 4.84631 2.09826C4.99299 2.0616 5.32306 2.09826 5.50644 2.17162C5.5798 2.20828 5.72649 2.28164 5.83651 2.355C6.38662 2.72173 8.22034 4.95888 8.84377 6.13242C9.13718 6.68254 9.2472 7.12262 9.17384 7.37933C9.10048 7.63603 9.02716 7.78276 8.18364 8.44289C7.96359 8.58958 7.78021 8.77296 7.63353 8.88298C7.59687 8.91964 7.56016 8.95635 7.5235 8.99301L7.48684 9.02967C7.45018 9.06633 7.41348 9.06633 7.41348 9.10303L7.37682 9.13969C7.19344 9.35973 7.08341 9.79982 7.08341 10.1299C7.12007 10.79 7.48684 11.8536 8.03696 12.7338C8.44039 13.3572 9.17384 14.2007 9.87068 14.8242C10.6775 15.5577 11.411 16.0711 12.2545 16.4745C13.3547 16.988 14.0515 17.1347 14.6383 16.9146H14.675L14.7484 16.878C14.8217 16.8413 14.9317 16.8046 14.9684 16.7679C15.0051 16.7313 15.0418 16.7313 15.0784 16.6946C15.1151 16.6579 15.1518 16.6212 15.7386 15.9244C16.1787 15.411 16.3253 15.2643 16.4721 15.1909C16.5087 15.1543 16.5821 15.1543 16.6554 15.1176C17.0589 14.9709 17.4623 15.0075 17.9024 15.2276C18.2691 15.4476 19.1126 15.9244 19.6261 16.2911C20.3962 16.8046 21.8632 17.9781 22.0099 18.1615C22.1933 18.3449 22.2666 18.5282 22.2666 18.785C22.2665 18.9683 22.2298 19.1884 22.1565 19.4084Z" fill="white"/>
</svg>
