<svg width="216" height="40" viewBox="0 0 216 40" fill="none" xmlns="http://www.w3.org/2000/svg">
<mask id="mask0_309_4730" style="mask-type:alpha" maskUnits="userSpaceOnUse" x="0" y="0" width="78" height="40">
<rect width="78" height="40" fill="#D9D9D9"/>
</mask>
<g mask="url(#mask0_309_4730)">
<rect width="2.53172" height="60.7612" transform="matrix(0.726178 -0.687506 0.726178 0.687506 0 -0.105469)" fill="#C51414"/>
<rect width="2.53172" height="60.7612" transform="matrix(0.726178 -0.687506 0.726178 0.687506 8.03101 -0.105469)" fill="#C51414"/>
<rect width="2.53172" height="60.7612" transform="matrix(0.726178 -0.687506 0.726178 0.687506 16.062 -0.105469)" fill="#C51414"/>
<rect width="2.53172" height="60.7612" transform="matrix(0.726178 -0.687506 0.726178 0.687506 24.0929 -0.105469)" fill="#C51414"/>
<rect width="2.53172" height="60.7612" transform="matrix(0.726178 -0.687506 0.726178 0.687506 32.1239 -0.105469)" fill="#C51414"/>
</g>
<path fill-rule="evenodd" clip-rule="evenodd" d="M127.962 21.23C128.267 16.289 126.728 11.4107 123.643 7.53868C120.559 3.66667 116.148 1.07614 111.264 0.268216C106.38 -0.539713 101.37 0.49237 97.203 3.16482C93.036 5.83727 90.0082 9.96017 88.7052 14.736C87.4023 19.5118 87.9168 24.6011 90.1493 29.0195C92.3818 33.4379 96.1736 36.8713 100.791 38.6556C105.409 40.44 110.524 40.4484 115.147 38.6792C119.771 36.9101 123.574 33.4891 125.821 29.0781L122.545 27.4096C120.711 31.0098 117.607 33.802 113.834 35.246C110.06 36.69 105.885 36.6831 102.116 35.2267C98.3473 33.7704 95.2524 30.968 93.4302 27.3617C91.6081 23.7554 91.1881 19.6015 92.2516 15.7035C93.3151 11.8055 95.7864 8.44038 99.1875 6.25913C102.589 4.07788 106.678 3.23549 110.664 3.89492C114.65 4.55435 118.251 6.66874 120.768 9.82907C123.286 12.9894 124.542 16.9711 124.293 21.0039L127.962 21.23ZM107.5 8.0003H108.5V19.1342C108.799 19.3071 109 19.6303 109 20.0004C109 20.0933 108.987 20.1832 108.964 20.2685L115.843 24.2403L115.343 25.1063L108.197 20.9809C108.134 20.9937 108.068 21.0004 108 21.0004C107.448 21.0004 107 20.5527 107 20.0004C107 19.6302 107.201 19.3071 107.5 19.1342V8.0003ZM108.473 4.67429C108.157 4.66452 107.842 4.66455 107.527 4.67426V6.28805C107.684 6.28273 107.842 6.28005 108 6.28005C108.158 6.28005 108.316 6.28273 108.473 6.28805V4.67429ZM111.51 5.07405C111.817 5.14639 112.122 5.22809 112.424 5.31896L112.007 6.87439C111.707 6.78278 111.402 6.70121 111.093 6.63006L111.51 5.07405ZM116.073 6.96421C115.805 6.79808 115.531 6.6403 115.253 6.4911L114.448 7.8864C114.727 8.03515 115 8.19325 115.267 8.36028L116.073 6.96421ZM118.503 8.82866C118.732 9.04426 118.955 9.26737 119.172 9.49777L118.031 10.6389C117.815 10.4083 117.592 10.1851 117.361 9.96982L118.503 8.82866ZM120.114 13.5528L121.509 12.7472C121.36 12.4697 121.203 12.1964 121.036 11.9277L119.64 12.7337C119.807 13.0007 119.965 13.2739 120.114 13.5528ZM122.681 15.5768C122.772 15.8788 122.854 16.1836 122.926 16.4908L121.37 16.9077C121.299 16.5989 121.218 16.294 121.126 15.9935L122.681 15.5768ZM123.326 19.5273C123.336 19.8419 123.336 20.1574 123.326 20.4735H121.712C121.718 20.3165 121.72 20.1588 121.72 20.0004C121.72 19.8421 121.718 19.6843 121.712 19.5273H123.326ZM103.576 5.31899C103.878 5.22799 104.183 5.14631 104.49 5.07408L104.907 6.63005C104.598 6.7012 104.294 6.78278 103.993 6.87439L103.576 5.31899ZM100.747 6.49102C100.469 6.63999 100.196 6.79774 99.9272 6.96415L100.733 8.36028C101 8.19325 101.273 8.03515 101.552 7.8864L100.747 6.49102ZM96.8282 9.49777C97.0439 9.26838 97.267 9.04522 97.4973 8.82869L98.6385 9.96987C98.4079 10.1852 98.1847 10.4084 97.9694 10.639L96.8282 9.49777ZM94.9639 11.9276C94.7978 12.1958 94.64 12.4691 94.4907 12.747L95.886 13.5526C96.0348 13.2737 96.1929 13.0006 96.3599 12.7336L94.9639 11.9276ZM93.0738 16.4905C93.1461 16.1829 93.2278 15.8781 93.3186 15.5767L94.874 15.9934C94.7824 16.2939 94.7008 16.5987 94.6297 16.9075L93.0738 16.4905ZM92.674 19.5272C92.6642 19.8432 92.6642 20.1588 92.674 20.4735H94.2877C94.2823 20.3165 94.2797 20.1588 94.2797 20.0004C94.2797 19.842 94.2823 19.6843 94.2877 19.5272L92.674 19.5272ZM93.3187 24.4241C93.2277 24.122 93.146 23.8172 93.0738 23.5101L94.6297 23.0932C94.7008 23.4021 94.7824 23.7069 94.874 24.0074L93.3187 24.4241ZM94.4908 27.2538C94.6397 27.5311 94.7975 27.8044 94.9639 28.0731L96.3599 27.2672C96.1929 27.0002 96.0348 26.7271 95.8861 26.4482L94.4908 27.2538ZM97.4974 31.172C97.268 30.9563 97.0448 30.7332 96.8284 30.5029L97.9694 29.3619C98.1847 29.5925 98.4079 29.8156 98.6385 30.031L97.4974 31.172ZM99.9274 33.0365C100.196 33.2025 100.469 33.3603 100.747 33.5096L101.552 32.1144C101.273 31.9657 101 31.8076 100.733 31.6406L99.9274 33.0365ZM104.49 34.9266C104.183 34.8542 103.878 34.7725 103.576 34.6817L103.993 33.1264C104.294 33.2181 104.598 33.2996 104.907 33.3708L104.49 34.9266ZM107.527 35.3263C107.843 35.3361 108.158 35.3361 108.473 35.3263V33.7128C108.316 33.7181 108.158 33.7208 108 33.7208C107.842 33.7208 107.684 33.7181 107.527 33.7128V35.3263ZM112.424 34.6816C112.121 34.7727 111.817 34.8543 111.51 34.9265L111.093 33.3708C111.402 33.2996 111.706 33.2181 112.007 33.1264L112.424 34.6816ZM115.253 33.5096C115.531 33.3607 115.804 33.203 116.073 33.0365L115.267 31.6406C115 31.8076 114.727 31.9657 114.448 32.1144L115.253 33.5096ZM119.172 30.503C118.956 30.7325 118.733 30.9556 118.503 31.1721L117.361 30.031C117.592 29.8157 117.815 29.5925 118.031 29.3619L119.172 30.503ZM121.036 28.073C121.202 27.8049 121.36 27.5316 121.509 27.2536L120.114 26.4481C119.965 26.727 119.807 27.0001 119.64 27.2671L121.036 28.073Z" fill="white"/>
<mask id="mask1_309_4730" style="mask-type:alpha" maskUnits="userSpaceOnUse" x="138" y="0" width="78" height="40">
<rect width="78" height="40" transform="matrix(-1 0 0 1 216 0)" fill="#D9D9D9"/>
</mask>
<g mask="url(#mask1_309_4730)">
<rect width="2.53172" height="60.7612" transform="matrix(-0.726178 -0.687506 -0.726178 0.687506 216 -0.105469)" fill="#C51414"/>
<rect width="2.53172" height="60.7612" transform="matrix(-0.726178 -0.687506 -0.726178 0.687506 207.969 -0.105469)" fill="#C51414"/>
<rect width="2.53172" height="60.7612" transform="matrix(-0.726178 -0.687506 -0.726178 0.687506 199.938 -0.105469)" fill="#C51414"/>
<rect width="2.53172" height="60.7612" transform="matrix(-0.726178 -0.687506 -0.726178 0.687506 191.907 -0.105469)" fill="#C51414"/>
<rect width="2.53172" height="60.7612" transform="matrix(-0.726178 -0.687506 -0.726178 0.687506 183.876 -0.105469)" fill="#C51414"/>
</g>
</svg>
