<svg width="24" height="24" viewBox="0 0 24 24" fill="none" xmlns="http://www.w3.org/2000/svg">
<path fill-rule="evenodd" clip-rule="evenodd" d="M2.67566 5C1.75843 5 1 5.74067 1 6.67565C1 7.59291 1.74071 8.35131 2.67566 8.35131H5.34912C5.65287 8.35131 5.89911 8.10507 5.89911 7.80132C5.89911 7.49757 5.65287 7.25133 5.34912 7.25133H2.67566C2.35508 7.25133 2.09998 6.9923 2.09998 6.67565C2.09998 6.35507 2.35901 6.09998 2.67566 6.09998H5.95627L7.0909 10.3252C7.16968 10.6185 7.47135 10.7925 7.76471 10.7137C8.05807 10.6349 8.23202 10.3333 8.15324 10.0399L7.01677 5.80783L7.01621 5.80576C6.88614 5.32885 6.4527 5 5.96604 5H2.67566ZM8.89924 5C8.59549 5 8.34926 5.24624 8.34926 5.54999C8.34926 5.85374 8.59549 6.09998 8.89924 6.09998H21.8948L20.395 11.8405H8.75853C7.83035 11.8405 7.06124 12.5922 7.06124 13.5379C7.06124 14.4661 7.81282 15.2352 8.75853 15.2352H20.9676C21.2714 15.2352 21.5176 14.9889 21.5176 14.6852C21.5176 14.3814 21.2714 14.1352 20.9676 14.1352H8.75853C8.42704 14.1352 8.16121 13.8653 8.16121 13.5379C8.16121 13.2064 8.43116 12.9405 8.75853 12.9405H20.4049C20.8915 12.9405 21.3248 12.6116 21.455 12.1349L21.4565 12.1291L22.9599 6.37509C23.1533 5.67366 22.6224 5 21.9093 5H8.89924ZM10.0722 19.877C10.7359 19.877 11.2737 19.3391 11.2737 18.6755C11.2737 18.012 10.7359 17.4741 10.0722 17.4741C9.40874 17.4741 8.87087 18.012 8.87087 18.6755C8.87087 19.3391 9.40874 19.877 10.0722 19.877ZM19.0884 18.6755C19.0884 19.3391 18.5504 19.877 17.8869 19.877C17.2234 19.877 16.6855 19.3391 16.6855 18.6755C16.6855 18.012 17.2234 17.4741 17.8869 17.4741C18.5504 17.4741 19.0884 18.012 19.0884 18.6755Z" fill="white"/>
</svg>
