<svg width="24" height="24" viewBox="0 0 24 24" fill="none" xmlns="http://www.w3.org/2000/svg">
<path d="M22.5598 2.3095C22.3854 2.15767 22.1731 2.05685 21.9459 2.01796C21.7188 1.97907 21.4853 2.00361 21.271 2.08891L1.80294 9.79609C1.54845 9.89683 1.33317 10.0779 1.18932 10.3122C1.04547 10.5466 0.980791 10.8215 1.00495 11.096C1.02912 11.3704 1.14082 11.6296 1.32336 11.8348C1.5059 12.0399 1.74945 12.18 2.01757 12.234L7.30177 13.2991V19.8718C7.29913 20.1247 7.37231 20.3725 7.51174 20.5828C7.65116 20.793 7.85033 20.956 8.08318 21.0503C8.23917 21.1161 8.40652 21.1502 8.57563 21.1506C8.74089 21.1501 8.90439 21.1165 9.05667 21.0518C9.20894 20.9871 9.34694 20.8926 9.46268 20.7737L12.4792 17.734L16.9299 21.6809C17.1593 21.8862 17.4553 21.9997 17.762 22C17.8954 21.9998 18.0279 21.9787 18.1547 21.9372C18.3639 21.8703 18.552 21.7494 18.7004 21.5864C18.8487 21.4234 18.952 21.224 19 21.0082L22.9677 3.5611C23.0195 3.33483 23.0089 3.09859 22.937 2.87797C22.8651 2.65735 22.7346 2.46076 22.5598 2.3095ZM1.84554 11.0208C1.83504 10.929 1.85559 10.8362 1.90387 10.7576C1.95214 10.679 2.02532 10.619 2.11157 10.5875L19.9571 3.52267L7.62585 12.4972L2.18306 11.4002C2.09265 11.3845 2.01015 11.3384 1.9489 11.2696C1.88766 11.2007 1.85124 11.1131 1.84554 11.0208ZM8.86592 20.1725C8.80692 20.2319 8.73174 20.2724 8.6499 20.2888C8.56805 20.3052 8.48322 20.2968 8.40612 20.2646C8.32902 20.2325 8.26313 20.178 8.21676 20.1081C8.1704 20.0381 8.14566 19.9559 8.14566 19.8718V13.8911L11.8444 17.1711L8.86592 20.1725ZM22.1451 3.37113L18.1774 20.8183C18.1611 20.89 18.1265 20.9563 18.0771 21.0106C18.0277 21.0649 17.9652 21.1053 17.8956 21.1279C17.8261 21.1505 17.7519 21.1545 17.6803 21.1396C17.6087 21.1246 17.5423 21.0911 17.4874 21.0425L8.39938 12.9833L22.0769 3.02894C22.1129 3.07723 22.1377 3.13303 22.1495 3.19225C22.1613 3.25146 22.1598 3.31258 22.1451 3.37113Z" fill="white"/>
</svg>
