<svg width="24" height="24" viewBox="0 0 24 24" fill="none" xmlns="http://www.w3.org/2000/svg">
<path d="M11.6471 2.1001H13.4118C13.6067 2.1001 13.7647 2.26424 13.7647 2.46675C13.7647 2.66926 13.6067 2.8334 13.4118 2.8334H11.6471C11.4522 2.8334 11.2942 2.66922 11.2942 2.46675C11.2942 2.26428 11.4522 2.1001 11.6471 2.1001Z" fill="white"/>
<path d="M10.5883 2.1001H10.2354C10.0404 2.1001 9.88245 2.26428 9.88245 2.46675C9.88245 2.66922 10.0404 2.8334 10.2354 2.8334H10.5883C10.7832 2.8334 10.9412 2.66926 10.9412 2.46675C10.9412 2.26424 10.7832 2.1001 10.5883 2.1001Z" fill="white"/>
<path fill-rule="evenodd" clip-rule="evenodd" d="M15.2691 12.7488C15.4824 12.924 15.6594 13.097 15.7901 13.2686C15.8477 13.3443 15.8963 13.4198 15.935 13.4959C16.1172 13.8537 16.0535 14.2927 15.778 14.5789L15.4333 14.9371C14.2737 16.1422 12.8911 15.8099 11.5128 14.378L9.51413 12.3015C8.1358 10.8696 7.81605 9.43315 8.9758 8.22864L9.32065 7.86998C9.59643 7.58407 10.0188 7.5179 10.3633 7.70717C10.437 7.74769 10.5101 7.79865 10.5835 7.85915C10.748 7.99476 10.9139 8.17815 11.082 8.39893C11.1993 8.55306 11.311 8.71673 11.414 8.88031C11.476 8.97875 11.5219 9.05609 11.5503 9.10654C11.7674 9.50301 11.7383 9.96768 11.3659 10.2089C11.3154 10.2529 11.2472 10.3135 11.1796 10.3757L11.1601 10.3936C11.1205 10.4303 11.0838 10.4658 11.0593 10.4894C11.0394 10.5087 11.0276 10.5201 11.0292 10.5176C10.8717 10.7591 10.8833 10.9072 11.0883 11.1204L12.6496 12.7421C12.8549 12.9554 12.9974 12.9675 13.2299 12.8038C13.2274 12.8055 13.2386 12.793 13.2577 12.7717C13.2804 12.7464 13.3142 12.7086 13.3492 12.6678L13.3664 12.6476C13.4262 12.5773 13.4845 12.5065 13.5269 12.4541C13.7591 12.0672 14.2065 12.037 14.592 12.2648C14.6365 12.2919 14.711 12.3396 14.8057 12.4039C14.9632 12.5109 15.1207 12.627 15.2691 12.7488ZM14.9341 14.4185L15.2789 14.0602C15.3353 14.0016 15.3483 13.9119 15.3111 13.8387C15.2939 13.805 15.269 13.7662 15.2366 13.7236C15.1453 13.6037 15.0054 13.467 14.8314 13.3241C14.7012 13.2172 14.5603 13.1134 14.4193 13.0176C14.335 12.9603 14.2702 12.9189 14.2391 12.8999C14.1636 12.8553 14.1335 12.8488 14.1257 12.8472L14.1243 12.8469C14.1236 12.8467 14.1242 12.847 14.1243 12.8469L14.0867 12.9018C14.0748 12.9167 14.0543 12.942 14.0277 12.9744C13.9835 13.0284 13.9385 13.0825 13.8953 13.1333L13.8763 13.1556C13.761 13.29 13.6912 13.3649 13.6258 13.4109C13.1164 13.7696 12.5979 13.7255 12.1506 13.2607L10.5891 11.6387C10.1421 11.1739 10.0997 10.6354 10.4449 10.1063C10.4892 10.0383 10.5613 9.96574 10.6907 9.84599L10.7121 9.82622C10.761 9.78132 10.8131 9.73461 10.865 9.68864C10.8962 9.66105 10.9206 9.63974 10.9349 9.62737L10.9883 9.58916C10.9881 9.58924 10.9884 9.5896 10.9883 9.58916L10.9876 9.58691C10.986 9.57887 10.9802 9.54819 10.9392 9.47324C10.9186 9.4368 10.8787 9.36947 10.8235 9.28185C10.7312 9.13537 10.6313 8.98898 10.5283 8.85371C10.3912 8.67354 10.26 8.52848 10.1448 8.43356C10.1035 8.39949 10.0658 8.37323 10.0332 8.35531C9.96263 8.31656 9.87606 8.33009 9.81965 8.38862L9.475 8.74702C8.65299 9.60072 8.87567 10.601 10.0133 11.7829L12.0119 13.8593C13.1495 15.0412 14.1123 15.2725 14.9341 14.4185Z" fill="white"/>
<path d="M12.7059 9.79976C13.2913 9.79976 13.7647 10.2916 13.7647 10.8998C13.7647 11.1023 13.9226 11.2664 14.1176 11.2664C14.3125 11.2664 14.4705 11.1023 14.4705 10.8998C14.4705 9.88655 13.6811 9.06641 12.7058 9.06641C12.5109 9.06641 12.3529 9.23055 12.3529 9.43306C12.3529 9.63557 12.5109 9.79976 12.7059 9.79976Z" fill="white"/>
<path d="M15.1764 10.9001C15.1764 9.48123 14.0716 8.33345 12.7059 8.33345C12.5109 8.33345 12.3529 8.16926 12.3529 7.96675C12.3529 7.76424 12.5109 7.6001 12.7058 7.6001C14.4614 7.6001 15.8822 9.07621 15.8822 10.9001C15.8822 11.1026 15.7242 11.2668 15.5293 11.2668C15.3344 11.2668 15.1764 11.1026 15.1764 10.9001Z" fill="white"/>
<path fill-rule="evenodd" clip-rule="evenodd" d="M7.3983 1H16.6017C17.374 1 18 1.65038 18 2.45273V21.5473C18 22.3496 17.374 23 16.6017 23H7.3983C6.62625 23 6.00032 22.3496 6.00032 21.5473L6.0001 14.8338C5.99999 10.9482 5.99988 7.08466 6.00032 3.2V2.45273C6.00032 1.65042 6.62625 1 7.3983 1ZM7.3983 1.73335C7.01614 1.73335 6.70619 2.0554 6.70619 2.45273V3.2H17.2941V2.45273C17.2941 2.0554 16.9842 1.73335 16.6017 1.73335H7.3983ZM11.2942 21.1667C11.2942 21.5718 11.6101 21.9 12 21.9C12.3899 21.9 12.7059 21.5718 12.7059 21.1667C12.7059 20.7616 12.3899 20.4333 12 20.4333C11.6101 20.4333 11.2942 20.7616 11.2942 21.1667ZM17.294 3.93335H6.70619V19.3334H17.294V3.93335ZM6.70619 20.0667V21.5473C6.70619 21.9446 7.01614 22.2667 7.3983 22.2667H11.0667C10.7735 21.998 10.5883 21.6049 10.5883 21.1667C10.5883 20.7285 10.7735 20.3354 11.0667 20.0667H6.70619ZM12.9333 22.2667H16.6017C16.9842 22.2667 17.2941 21.9447 17.2941 21.5473V20.0667H12.9333C13.2266 20.3354 13.4117 20.7285 13.4117 21.1667C13.4117 21.6049 13.2266 21.998 12.9333 22.2667Z" fill="white"/>
</svg>
