<svg width="217" height="125" viewBox="0 0 217 125" fill="none" xmlns="http://www.w3.org/2000/svg">
<path fill-rule="evenodd" clip-rule="evenodd" d="M54.8495 93.3272C84.3448 110.355 132.166 110.355 161.662 93.3272C191.157 76.2996 191.157 48.6923 161.662 31.6646C132.166 14.6369 84.3448 14.6369 54.8495 31.6646C25.3541 48.6923 25.3541 76.2996 54.8495 93.3272ZM54.1278 93.7439C84.0217 111.002 132.489 111.002 162.383 93.7439C192.277 76.4861 192.277 48.5057 162.383 31.248C132.489 13.9902 84.0217 13.9902 54.1278 31.248C24.2338 48.5057 24.2338 76.4861 54.1278 93.7439ZM72.8921 82.9112C92.4228 94.1863 124.088 94.1863 143.619 82.9112C163.15 71.6362 163.15 53.3557 143.619 42.0806C124.088 30.8055 92.4228 30.8055 72.8921 42.0806C53.3614 53.3557 53.3614 71.6362 72.8921 82.9112ZM72.1704 83.3279C92.0997 94.8331 124.411 94.8331 144.341 83.3279C164.27 71.8227 164.27 53.1691 144.341 41.6639C124.411 30.1588 92.0997 30.1588 72.1704 41.6639C52.2411 53.1691 52.2411 71.8227 72.1704 83.3279ZM125.576 72.4953C116.01 78.0177 100.501 78.0177 90.9347 72.4953C81.3686 66.9728 81.3686 58.0191 90.9347 52.4966C100.501 46.9741 116.01 46.9741 125.576 52.4966C135.142 58.0191 135.142 66.9728 125.576 72.4953ZM126.298 72.9119C116.333 78.6645 100.178 78.6645 90.2129 72.9119C80.2483 67.1593 80.2483 57.8325 90.213 52.0799C100.178 46.3273 116.333 46.3273 126.298 52.0799C136.263 57.8325 136.263 67.1593 126.298 72.9119Z" fill="#C51414"/>
<path fill-rule="evenodd" clip-rule="evenodd" d="M21.1128 71.6643L30.0621 81.6665L29.3169 82.3333L21.7249 73.8482C22.3299 85.3536 30.6532 95.8242 43.9925 103.533C57.8379 111.535 76.9984 116.5 98.1895 116.5V117.5C76.8547 117.5 57.5152 112.503 43.4921 104.399C30.1162 96.6688 21.496 86.055 20.7432 74.1948L14.6166 84.2599L13.7624 83.7399L21.1128 71.6643Z" fill="white"/>
<path fill-rule="evenodd" clip-rule="evenodd" d="M195.266 53.3357L186.317 43.3335L187.062 42.6667L194.654 51.1518C194.049 39.6464 185.726 29.1758 172.387 21.4667C158.541 13.4652 139.381 8.5001 118.189 8.5001V7.5001C139.524 7.5001 158.864 12.4967 172.887 20.6009C186.263 28.3312 194.883 38.945 195.636 50.8052L201.762 40.7401L202.617 41.2601L195.266 53.3357Z" fill="white"/>
</svg>
