<svg width="24" height="24" viewBox="0 0 24 24" fill="none" xmlns="http://www.w3.org/2000/svg">
<path d="M17.5814 8.2793L5.48834 12.4653L9.67439 13.8607M17.5814 8.2793L9.67439 13.8607M17.5814 8.2793L13.8604 18.0467L9.67439 13.8607" stroke="white" stroke-width="1.5" stroke-linecap="round" stroke-linejoin="round"/>
<path fill-rule="evenodd" clip-rule="evenodd" d="M2 12C2 6.47701 6.47701 2 12 2C17.523 2 22 6.47701 22 12C22 17.523 17.523 22 12 22C6.47701 22 2 17.523 2 12ZM12 3.39535C7.24764 3.39535 3.39535 7.24764 3.39535 12C3.39535 16.7524 7.24764 20.6047 12 20.6047C16.7524 20.6047 20.6047 16.7524 20.6047 12C20.6047 7.24764 16.7524 3.39535 12 3.39535Z" fill="white"/>
</svg>
